<svg xmlns="http://www.w3.org/2000/svg" viewBox="0 0 4489.75 1119.89"><style><![CDATA[.P{isolation:isolate}.S{fill:none}.T{stroke-linejoin:round}.U{stroke:#000}.V{stroke-width:6}.W{stroke-linecap:round}.X{fill:#fff}.Y{fill:#f6d2a2}.Z{fill:#6ad7e5}.a{fill:#107c41}]]></style><defs><linearGradient id="A" x1="227.49" y1="261.17" x2="449.56" y2="70.11" gradientTransform="matrix(0.53, -0.17, -0.18, -0.54, 760.09, 762.37)" gradientUnits="userSpaceOnUse"><stop offset="0" stop-color="#5a9fd4"/><stop offset="1" stop-color="#306998"/></linearGradient><linearGradient id="B" x1="535.41" y1="-45.53" x2="456.11" y2="66.67" gradientTransform="matrix(0.53, -0.17, -0.18, -0.54, 760.09, 762.37)" gradientUnits="userSpaceOnUse"><stop offset="0" stop-color="#ffd43b"/><stop offset="1" stop-color="#ffe873"/></linearGradient><path id="C" d="M772.34,48.12c85-76.64,187,60.54,83.4,110.78Z"/><path id="D" d="M261.67,194.21C145.26,154.6,241.2,9,332.77,75.94Z"/><path id="E" d="M555.67,3.15C674.12,1.22,785.48,16.34,845.21,129.23c54,126.7,37.8,264.6,47.9,399.31,8.68,115.67,25.95,249.2-26,357.33-54.64,113.78-195.41,144.5-311.81,142.21-91.44-1.81-202.3-29.83-255.2-112.41-62.08-96.94-35.77-243-33.21-352,3.13-129.21-39.12-258,1.24-385,41.81-131.75,160-163.3,287.54-175.5"/><path id="F" d="M526.09,250.9c-23.66,2.4-42.5,30.87-29.85,52.93C513,333,548.87,300.34,571.58,303c26.07.08,47.86,26.82,68.42,3.8,22.86-25.61-10.86-49.65-37.06-60.21Z"/><path id="G" d="M606.27,308.47c.32,16.07,4.18,34,1.47,51.24-4,7.83-12,8.8-18.93,12A28.19,28.19,0,0,1,567,355.31c-2.79-19.49.33-38.46.59-57.94Z"/><path id="H" d="M337.93,186.61c29.35,107.18,201.24,76.86,193-31.05C521,26.38,309.39,54.8,337.93,186.61"/><path id="I" d="M579.12,162.7C602.38,286,804,250,772.93,125.81,745.07,14.35,570.17,48.17,579.12,162.7"/><path id="J" d="M951.3,557.75c-4.53-1.62-9.32-2.73-12.45-6.72"/><path id="K" d="M522.76,310.27c-12.18,31,8.59,92.2,42.29,46.21-2.79-19.48.33-38.45.59-57.94Z"/><path id="L" d="M958.78,544.49c-1,30.91-32.13,17.14-46.28,7.67-13.42-8.94-17.18-1.29-18.61-19.32-.94-11.88-2.52-23.76-2-35.73,20-2.16,42,2.29,58.6,14,8.56,6,24.74,25.44,8.31,33.42"/><path id="M" d="M825.37 944.29c24 14.32 68.25 58.14 32.9 80.28-33.79 32-54-33.59-84.3-42.25 12.73-17.8 28.88-34.09 51.4-38.03z"/><path id="N" d="M202,573.86c4.46-1.74,9.22-3,12.18-7.12"/><path id="O" d="M201.42,573.74c2,30.89,32.66,16.11,46.48,6.17,13.13-9.39,17.13-1.85,18-19.92.55-11.89,1.76-23.83.91-35.76-20.13-1.48-41.86,3.64-58.13,15.86-8.36,6.31-23.93,26.22-7.25,33.65"/><path id="P" d="M2898.6 808.25a36.56 36.56 0 0 1-2.66 14.09 33.34 33.34 0 0 1-18.69 18.66 38.09 38.09 0 0 1-14.45 2.66 37.69 37.69 0 0 1-14.31-2.66 33.34 33.34 0 0 1-18.69-18.63 38.65 38.65 0 0 1 0-28.18 33.28 33.28 0 0 1 18.69-18.62 37.69 37.69 0 0 1 14.31-2.66 38.09 38.09 0 0 1 14.45 2.66 33.28 33.28 0 0 1 18.69 18.62 36.56 36.56 0 0 1 2.66 14.06zm-10.35 0a30.1 30.1 0 0 0-1.8-10.49 25.39 25.39 0 0 0-5.1-8.49 24.17 24.17 0 0 0-8-5.68 27.9 27.9 0 0 0-21.14 0 23.29 23.29 0 0 0-7.91 5.68 25.9 25.9 0 0 0-5 8.49 31.5 31.5 0 0 0 0 21 25.75 25.75 0 0 0 5 8.48 23 23 0 0 0 7.91 5.68 27.77 27.77 0 0 0 21.14 0 23.89 23.89 0 0 0 8-5.68 25.24 25.24 0 0 0 5.1-8.48 30.16 30.16 0 0 0 1.8-10.51z"/></defs><path d="M945.21 538.92a155.2 155.2 0 0 0-24.11 10.23c-20.7 11.06-22 20.49-17.14 35.47l6.47 19.79 51.92-17 2.15 6.6-51.91 17-19.48 6.37c-15.09 4.93-25.34 18.32-23.83 36.92 1.7 21.34 5.52 33.75 17.25 52.77 8.72 14.16 21.11 22.23 36.2 17.29l17.85-5.83-7.76-23.72c-5.6-17.13 4.28-37.1 21.89-42.85l51.85-17a27.51 27.51 0 0 0 17.33-34.86l-16.16-49.44c-4.6-14.07-19.92-20.75-34.78-18.5a171.65 171.65 0 0 0-27.74 6.76zM922.34 564a10.41 10.41 0 1 1-6.5 13.11 10.37 10.37 0 0 1 6.5-13.11z" fill="url(#A)"/><path d="M1022.83 575l7.54 23c5.84 17.87-4.39 37.87-21.67 43.52l-51.86 17c-14.2 4.65-22 20.64-17.33 34.87l16.17 49.43c4.6 14.07 19.54 18.35 34.58 17.9 18-.55 34-4.82 51.85-17 11.83-8.06 22.23-19.88 17.33-34.87l-6.44-19.78-51.88 16.93-2.12-6.57 51.86-17 26-8.48c15.09-4.94 17.27-17.3 17.36-34.81.1-18-5.24-33.6-17.25-52.76-8.64-13.8-19.46-22.77-34.57-17.83zm11.77 134.72a10.41 10.41 0 1 1-6.52 13.05 10.3 10.3 0 0 1 6.52-13.09z" fill="url(#B)"/><use href="#C" class="Z"/><use href="#C" class="S T U V"/><use href="#D" class="Z"/><use href="#D" class="S T U V"/><path d="M840 116c13.57-11.28 22.43-24.64 9.37-40.33-12.12-14.54-27.82-9.37-41.41 2zm-564.76 37.21c-15.17-9.06-26-20.89-15.46-38.42 9.73-16.22 26-13.5 41.19-4.44z"/><use href="#E" class="Z"/><use href="#E" class="S T U V W"/><use href="#F" class="Y"/><use href="#F" stroke="#231f20" class="S T V"/><path d="M523.08 249.78c-2.44-40.94 75.67-47.33 85.45-13.22s-81.11 43.51-85.45 13.22z"/><use href="#G" class="X"/><use href="#G" class="S T U V"/><use href="#H" class="X"/><use href="#H" class="S T U V W"/><use href="#I" class="X"/><use href="#I" class="S T U V W"/><use href="#J" fill="#c6b198"/><use href="#J" class="S T U V W"/><use href="#K" class="X"/><use href="#K" class="S T U V"/><use href="#L" class="Y"/><g class="S T U V W"><use href="#L"/><path d="M858.27,1024.57c-5.47-10.44-7.45-22.7-16.39-31"/></g><use href="#M" class="Y"/><use href="#M" class="S T U V"/><path d="M703.32,170c11.4,12.1,11.67,32.07.73,44.6s-29.13,12.78-40.45.63-11.68-32.07-.73-44.6S692,157.85,703.32,170"/><path d="M692.54,199.27a9.14,9.14,0,0,1,.21,11.35,6,6,0,0,1-9.56.13A9.14,9.14,0,0,1,683,199.4a6,6,0,0,1,8.39-1.27,6.32,6.32,0,0,1,1.17,1.14" class="X"/><path d="M450.11,186.56c11.54,12.14,11.88,32.12.74,44.6A27.59,27.59,0,0,1,411.94,234a26.2,26.2,0,0,1-2.27-2.2c-11.54-12.14-11.88-32.12-.73-44.6a27.56,27.56,0,0,1,41.17-.68"/><path d="M439,219.74a9.11,9.11,0,0,1,.2,11.35,6.21,6.21,0,0,1-8.73,1.1,6.15,6.15,0,0,1-1-.94,9.11,9.11,0,0,1-.21-11.35,6.16,6.16,0,0,1,9.71-.16" class="X"/><use href="#N" fill="#c6b198"/><use href="#N" stroke-width="3" class="S T U W"/><use href="#O" class="Y"/><use href="#O" class="S T U V W"/><path d="M380.76,571.4h-203c-14,0-25.41,11.69-25.41,26.14v111L380.76,845.67,495,895.29l114.21-49.62V708.56Z" fill="#21a366"/><path d="M152.3 708.51h228.46v137.11H152.3z" class="a"/><path d="M583.87 571.4H380.81v137.11h228.46v-111a26.66 26.66 0 0 0-7.43-18.51 24.7 24.7 0 0 0-17.97-7.6z" fill="#33c481"/><path d="M380.76,845.62H152.3v248.13c0,14.45,11.36,26.14,25.41,26.14H583.87c14,0,25.4-11.69,25.4-26.14v-111Z" fill="#185c37"/><path d="M380.76 845.62h228.46v137.11H380.76z" class="a"/><path d="M298.26 701.44h-146v333h146c14-.06 25.35-11.69 25.4-26.14V727.58c-.05-14.45-11.36-26.08-25.4-26.14z" fill="#165634"/><path d="M279.26 688.91h-127v333h127c14 0 25.35-11.69 25.4-26.14V715c-.1-14.41-11.41-26-25.4-26.09z" fill="#13452b"/><path d="M25.4 688.91h253.86c14 0 25.4 11.68 25.4 26.13v261.2c0 14.45-11.36 26.14-25.4 26.14H25.4a25.2 25.2 0 0 1-18-7.65A26.54 26.54 0 0 1 0 976.24V715c0-14.41 11.36-26.09 25.4-26.09z" class="a"/><path d="M72,933.91,124,851,76.35,768.5h38.31l26,52.7c2.37,5,4,8.71,5,11.21H146c1.7-4,3.51-7.86,5.37-11.63l27.77-52.28h35.21l-48.89,82,50.13,83.41H178.17l-30-57.91a46.32,46.32,0,0,1-3.56-7.7h-.46a39.73,39.73,0,0,1-3.46,7.49l-30.93,58.12Z" class="X"/><path d="M1555.33 412h-165.12v41.15a40.4 40.4 0 0 0 12.15 29.26q12.15 12.4 29 12.4H1473q41.14 0 41.16-41.66h41.15q-9.42 82.81-82.31 82.81h-82.81q-33.72 0-58.26-24.3-24.54-24.3-24.54-58.51v-124q0-33.72 24.54-58 24.54-24.28 58.26-24.3H1473q33.72 0 58 24.3 24.28 24.3 24.3 58zm-165.12-41.2H1473v-41.65a39.63 39.63 0 0 0-12.15-29 40.2 40.2 0 0 0-29.5-12.15 41.49 41.49 0 0 0-41.16 41.16zm247.93 165.12v-62q0-36.69 20.82-57.27 20.82-20.58 62-25.54-41.16-4.45-62-25.29-20.84-20.84-20.82-57v-62h82.8v82.31a40.13 40.13 0 0 0 12.15 29.5 39.56 39.56 0 0 0 29 12.15 41.48 41.48 0 0 0 41.65-41.65v-82.29h82.31v62q0 36.19-20.58 57-20.58 20.81-61.73 25.29 41.16 5 61.73 25.79 20.57 20.79 20.58 57v62h-82.31v-82.81a39.59 39.59 0 0 0-12.15-29A40.16 40.16 0 0 0 1762.1 412a41.49 41.49 0 0 0-41.16 41.15v82.81zm537.5-206.77h-41.16q-5-41.14-41.65-41.16a41.49 41.49 0 0 0-41.16 41.16v124a40.4 40.4 0 0 0 12.15 29.26q12.15 12.4 29 12.4 36.69 0 41.65-41.66h41.16q-5 82.81-82.81 82.81h-41.16q-33.72 0-58.26-24.3-24.54-24.3-24.54-58.51v-124q0-33.72 24.54-58 24.54-24.28 58.26-24.3h41.16q78.36-.01 82.82 82.3zM2505.87 412h-165.12v41.15a40.4 40.4 0 0 0 12.15 29.26q12.15 12.4 29 12.4h41.65q41.14 0 41.16-41.66h41.15q-9.42 82.81-82.31 82.81h-82.81q-33.72 0-58.26-24.3-24.54-24.3-24.48-58.55v-124q0-33.72 24.54-58 24.54-24.28 58.26-24.3h82.81q33.72 0 58 24.3 24.28 24.3 24.3 58zm-165.12-41.2h82.81v-41.65a39.63 39.63 0 0 0-12.15-29 40.21 40.21 0 0 0-29.5-12.15 41.49 41.49 0 0 0-41.16 41.16zm247.93 165.12V164h82.8v371.92zm165.11-330.73V164h82.81v41.16zm0 330.73V246.84h82.81v289.08zm165.12-289.08h247.92V288l-165.12 206.77h165.12v41.15h-247.92v-41.15L3084.52 288h-165.61zM3497.56 412h-165.12v41.15a40.4 40.4 0 0 0 12.15 29.26q12.15 12.4 29 12.4h41.65q41.16 0 41.16-41.66h41.15q-9.42 82.81-82.31 82.81h-82.81q-33.72 0-58.26-24.3-24.54-24.3-24.54-58.51v-124q0-33.72 24.54-58 24.54-24.28 58.26-24.3h82.81q33.72 0 58 24.3 24.28 24.3 24.29 58zm-165.12-41.2h82.81v-41.65a39.63 39.63 0 0 0-12.15-29 40.2 40.2 0 0 0-29.5-12.15 41.49 41.49 0 0 0-41.16 41.16zm247.93 41.2v-41.2h206.77V412zm289.08-165.16h82.8V288q0-20.82 10.42-31 10.42-10.18 30.74-10.16h41.65q33.72 0 58 24.3 24.28 24.3 24.29 58v124q0 34.22-24.29 58.51-24.29 24.29-58 24.3h-82.81v82.81h-82.8zm82.8 247.93h41.16a41.48 41.48 0 0 0 41.65-41.66v-124a39.63 39.63 0 0 0-12.15-29 40.2 40.2 0 0 0-29.5-12.15 41.49 41.49 0 0 0-41.16 41.16zm289.58 82.31q3 41.65 41.15 41.65h41.16a41.48 41.48 0 0 0 41.65-41.65v-82.31q-5 41.16-41.65 41.15H4283q-33.72 0-58.26-24.3-24.54-24.3-24.54-58.51V246.84h82.8v206.27a40.4 40.4 0 0 0 12.15 29.26q12.15 12.4 29 12.4a39.74 39.74 0 0 0 29.5-12.4 40.4 40.4 0 0 0 12.15-29.26V246.84h82.31v330.24q0 33.7-24.29 58.26-24.29 24.56-58 24.54H4283q-72.88 0-82.8-82.8z" class="P" fill="#65cfdb"/><g class="P" fill="#5e5e5e"><path d="M1316.85 841.9h-12.08l44.29-101.81h10.07l44.29 101.81h-12.08l-11.22-26.74h-52zm15.1-36.24h44.15l-22-53.49zm125.25-65.57h29.62q15.53 0 24.52 6.76 8.99 6.76 9 20.42 0 13.66-9 20.49-9 6.83-24.52 6.83h-19.27v47.31h-10.35zm10.35 45h16.68a41.36 41.36 0 0 0 11.72-1.44 21.59 21.59 0 0 0 7.69-3.81 13.83 13.83 0 0 0 4.17-5.61 18.43 18.43 0 0 0 1.3-7 18.08 18.08 0 0 0-1.3-6.83 14.38 14.38 0 0 0-4.17-5.68A20.21 20.21 0 0 0 1496 751a43.49 43.49 0 0 0-11.72-1.37h-16.68zm93.76 45.16l20.56-55.65h11.5l-33.65 84.84a34.78 34.78 0 0 1-7.69 12.37q-4.68 4.61-13.44 4.6c-1.44 0-2.91 0-4.39-.14a18 18 0 0 1-4.39-.86l1-9.21a15.23 15.23 0 0 0 7.19 1.58 10.16 10.16 0 0 0 7.91-3.16 27.62 27.62 0 0 0 5-8.91l4.89-13-27.61-68.16h11.94zm79.08-47.02H1621v39.69a21.51 21.51 0 0 0 .72 6.11 8.67 8.67 0 0 0 2 3.67 7 7 0 0 0 3.09 1.8 14.9 14.9 0 0 0 4 .5 18.69 18.69 0 0 0 5-.72 23.15 23.15 0 0 0 4.75-1.87l.43 8.77a30.51 30.51 0 0 1-12.8 2.45 23.9 23.9 0 0 1-5.68-.72 13.39 13.39 0 0 1-5.39-2.73 15.21 15.21 0 0 1-4-5.47 22 22 0 0 1-1.58-9.06v-42.42h-14.24v-8.63h14.24v-19h9.46v19h19.41zm12.94-50.04h9.49v52.2h.29a22.23 22.23 0 0 1 4-5 26.29 26.29 0 0 1 5.46-4 30.32 30.32 0 0 1 6.4-2.59 25.1 25.1 0 0 1 6.69-.93q12.94 0 19.12 6.83 6.18 6.83 6.19 19.48v42.72h-9.49v-37.24q0-11.22-3.89-17.19-3.89-5.97-14.38-6a36.51 36.51 0 0 0-4 .57 17.7 17.7 0 0 0-7 3.16 23 23 0 0 0-6.54 7.77q-2.88 5.18-2.88 14.38v34.55h-9.49zm147.97 75.06a36.75 36.75 0 0 1-2.66 14.09A33.42 33.42 0 0 1 1780 841a38.14 38.14 0 0 1-14.46 2.66 37.68 37.68 0 0 1-14.3-2.66 33.39 33.39 0 0 1-18.7-18.63 38.65 38.65 0 0 1 0-28.18 34.19 34.19 0 0 1 7.41-11.22 33.6 33.6 0 0 1 11.29-7.4 37.68 37.68 0 0 1 14.3-2.66 38.14 38.14 0 0 1 14.46 2.66 33.36 33.36 0 0 1 18.69 18.62 36.75 36.75 0 0 1 2.61 14.06zm-10.35 0a30.1 30.1 0 0 0-1.8-10.49 25.25 25.25 0 0 0-5.11-8.49 24 24 0 0 0-8-5.68 27.87 27.87 0 0 0-21.13 0 23.19 23.19 0 0 0-7.91 5.68 25.92 25.92 0 0 0-5 8.49 31.66 31.66 0 0 0 0 21 25.77 25.77 0 0 0 5 8.48 22.93 22.93 0 0 0 7.91 5.68 27.75 27.75 0 0 0 21.13 0 23.69 23.69 0 0 0 8-5.68 25.1 25.1 0 0 0 5.11-8.48 30.16 30.16 0 0 0 1.85-10.51zm36.66-33.65l.36 5.4.08 5.39h.28a22.23 22.23 0 0 1 4-5 26.29 26.29 0 0 1 5.46-4 30.54 30.54 0 0 1 6.4-2.59 25.1 25.1 0 0 1 6.69-.93q12.94 0 19.12 6.83 6.18 6.83 6.19 19.48v42.72h-9.49v-37.24q0-11.22-3.89-17.19-3.89-5.97-14.38-6a36.51 36.51 0 0 0-4 .57 17.7 17.7 0 0 0-7 3.16 23 23 0 0 0-6.54 7.77q-2.88 5.18-2.87 14.38v34.55h-9.5v-52.49l-.21-6.9-.5-7.91zm110.87 0h9.52v11.22h.29a24.81 24.81 0 0 1 5.46-5.9 34.24 34.24 0 0 1 6.62-4 31.32 31.32 0 0 1 7.12-2.3 36.12 36.12 0 0 1 7-.72 38.09 38.09 0 0 1 14.45 2.66 33.7 33.7 0 0 1 11.29 7.4 34.19 34.19 0 0 1 7.41 11.22 38.65 38.65 0 0 1 0 28.18 33.39 33.39 0 0 1-18.7 18.63 38.09 38.09 0 0 1-14.45 2.66 36.12 36.12 0 0 1-7-.72 31.82 31.82 0 0 1-7.12-2.3 34.29 34.29 0 0 1-6.62-4 24.57 24.57 0 0 1-5.46-5.89h-.29v52.63h-9.49zm61.4 33.65a30.33 30.33 0 0 0-1.79-10.49 25.41 25.41 0 0 0-5.11-8.49 24.17 24.17 0 0 0-8-5.68 25.7 25.7 0 0 0-10.57-2.08 27.16 27.16 0 0 0-10.78 2.08 26.81 26.81 0 0 0-8.49 5.68 25.82 25.82 0 0 0-5.61 8.49 28.4 28.4 0 0 0 0 21 25.67 25.67 0 0 0 5.61 8.48 26.48 26.48 0 0 0 8.49 5.68 27.16 27.16 0 0 0 10.78 2.09 25.7 25.7 0 0 0 10.57-2.09 23.89 23.89 0 0 0 8-5.68 25.26 25.26 0 0 0 5.11-8.48 30.39 30.39 0 0 0 1.79-10.51zm94.48 0a36.75 36.75 0 0 1-2.66 14.09A33.39 33.39 0 0 1 2073 841a38.09 38.09 0 0 1-14.45 2.66 37.69 37.69 0 0 1-14.31-2.66 33.42 33.42 0 0 1-18.69-18.63 38.65 38.65 0 0 1 0-28.18 33.36 33.36 0 0 1 18.69-18.62 37.69 37.69 0 0 1 14.31-2.66 38.09 38.09 0 0 1 14.45 2.66 33.7 33.7 0 0 1 11.29 7.4 34.19 34.19 0 0 1 7.41 11.22 36.75 36.75 0 0 1 2.66 14.06zm-10.36 0a30.33 30.33 0 0 0-1.79-10.49 25.41 25.41 0 0 0-5.11-8.49 24.17 24.17 0 0 0-8-5.68 27.9 27.9 0 0 0-21.14 0 23.39 23.39 0 0 0-7.91 5.68 26.08 26.08 0 0 0-5 8.49 31.5 31.5 0 0 0 0 21 25.92 25.92 0 0 0 5 8.48 23.12 23.12 0 0 0 7.91 5.68 27.77 27.77 0 0 0 21.14 0 23.89 23.89 0 0 0 8-5.68 25.26 25.26 0 0 0 5.11-8.48 30.39 30.39 0 0 0 1.79-10.51zm28.62-12.65q0-4.46-.22-9.06-.22-4.6-.4-11.94h9.35v12.51h.29a20.9 20.9 0 0 1 2.87-5.24 22.61 22.61 0 0 1 4.53-4.53 22 22 0 0 1 6.19-3.24 24.32 24.32 0 0 1 8-1.22 25.93 25.93 0 0 1 7 .86l-1.87 9.35a15.92 15.92 0 0 0-5.46-.72 19.62 19.62 0 0 0-9.35 2.08 20.85 20.85 0 0 0-6.47 5.32 22.2 22.2 0 0 0-3.81 7 23 23 0 0 0-1.22 7.19v38h-9.49zm81.53-12.37h-19.41v39.69a21.56 21.56 0 0 0 .71 6.11 8.57 8.57 0 0 0 2 3.67 7 7 0 0 0 3.09 1.8 14.88 14.88 0 0 0 4 .5 18.82 18.82 0 0 0 5-.72 23.29 23.29 0 0 0 4.74-1.87l.43 8.77a30.43 30.43 0 0 1-12.79 2.45 23.83 23.83 0 0 1-5.68-.72 13.42 13.42 0 0 1-5.4-2.73 15.08 15.08 0 0 1-4-5.47 21.84 21.84 0 0 1-1.59-9.06v-42.42H2151v-8.63h14.23v-19h9.5v19h19.41zm52.91-8.63h9.49v11.22h.29a24.85 24.85 0 0 1 5.47-5.9 33.87 33.87 0 0 1 6.61-4 31.32 31.32 0 0 1 7.12-2.3 36.2 36.2 0 0 1 7-.72 38.18 38.18 0 0 1 14.46 2.66 33.66 33.66 0 0 1 11.28 7.4 34 34 0 0 1 7.41 11.22 38.65 38.65 0 0 1 0 28.18 33.42 33.42 0 0 1-18.72 18.64 38.18 38.18 0 0 1-14.46 2.66 36.2 36.2 0 0 1-7-.72 31.82 31.82 0 0 1-7.12-2.3 33.92 33.92 0 0 1-6.61-4 24.61 24.61 0 0 1-5.47-5.89h-.29v52.63h-9.49zm61.41 33.65a30.1 30.1 0 0 0-1.8-10.49 25.25 25.25 0 0 0-5.11-8.49 24 24 0 0 0-8-5.68 25.66 25.66 0 0 0-10.57-2.08 27.19 27.19 0 0 0-10.78 2.08 26.81 26.81 0 0 0-8.49 5.68 25.79 25.79 0 0 0-5.6 8.49 28.27 28.27 0 0 0 0 21 25.64 25.64 0 0 0 5.6 8.48 26.48 26.48 0 0 0 8.49 5.68A27.2 27.2 0 0 0 2283 835a25.67 25.67 0 0 0 10.57-2.09 23.69 23.69 0 0 0 8-5.68 25.1 25.1 0 0 0 5.11-8.48 30.16 30.16 0 0 0 1.79-10.5zm69.59-7.62v-1.72q0-17.4-17.25-17.4a29.73 29.73 0 0 0-20.57 7.9l-5.75-6.75q9.5-9.78 28.47-9.78a30.91 30.91 0 0 1 9.42 1.44 21.43 21.43 0 0 1 7.84 4.38 21.87 21.87 0 0 1 5.32 7.41 25.74 25.74 0 0 1 2 10.64v30q0 3.88.36 8.13l.79 7h-9.2c-.29-1.63-.5-3.4-.65-5.32l-.21-5.61h-.29a25.65 25.65 0 0 1-9.85 9.71 29.92 29.92 0 0 1-13.88 3 30.24 30.24 0 0 1-8.62-1.23 22 22 0 0 1-7.41-3.73 19 19 0 0 1-5.18-6.19 18 18 0 0 1-1.94-8.55q0-8.2 4.24-12.87a26 26 0 0 1 10.64-7 52.47 52.47 0 0 1 13.67-2.87q7.26-.59 13.3-.58zm-4.89 7.77l-9 .36a52 52 0 0 0-10.36 1.72 22.86 22.86 0 0 0-8.48 4.24 9.66 9.66 0 0 0-3.52 7.91 11.19 11.19 0 0 0 1.36 5.68 11.38 11.38 0 0 0 3.67 3.89 15.66 15.66 0 0 0 5.1 2.15 25.25 25.25 0 0 0 5.68.65 21.65 21.65 0 0 0 9-1.73 18.27 18.27 0 0 0 10.21-11.57 28.5 28.5 0 0 0 1.22-8.41v-4.89zm85.42-17.98a20.4 20.4 0 0 0-6.83-6.33 19.37 19.37 0 0 0-10-2.58 24.74 24.74 0 0 0-10.57 1.87 23.27 23.27 0 0 0-8 5.6 24.3 24.3 0 0 0-5 8.56 34.24 34.24 0 0 0 0 21.43 24.25 24.25 0 0 0 5 8.55 23.16 23.16 0 0 0 8 5.61 24.89 24.89 0 0 0 10.57 1.87 19.28 19.28 0 0 0 10-2.59 20.2 20.2 0 0 0 6.83-6.33l7.76 5.9a31.91 31.91 0 0 1-11.36 8.7 34.13 34.13 0 0 1-13.23 3 37.76 37.76 0 0 1-14.81-2.52 32.71 32.71 0 0 1-11.29-7.41 31.67 31.67 0 0 1-7.11-11.28 42.17 42.17 0 0 1 0-28.33 31.72 31.72 0 0 1 7.11-11.29 32.83 32.83 0 0 1 11.29-7.4 37.4 37.4 0 0 1 14.81-2.52 34.13 34.13 0 0 1 13.23 3 31.91 31.91 0 0 1 11.36 8.7zm29.76 14.58l31.78-30.35h14.24l-33.51 30.78L2538 841.9h-14.7l-35-35.37v35.37h-9.49V733.19h9.49zm102.96-4.37v-1.72q0-17.4-17.25-17.4a29.73 29.73 0 0 0-20.57 7.9l-5.75-6.75q9.5-9.78 28.47-9.78a30.91 30.91 0 0 1 9.42 1.44 21.43 21.43 0 0 1 7.84 4.38 21.87 21.87 0 0 1 5.32 7.41 25.74 25.74 0 0 1 2 10.64v30q0 3.88.36 8.13.36 4.25.79 7h-9.2c-.29-1.63-.5-3.4-.65-5.32l-.21-5.61h-.29a25.71 25.71 0 0 1-9.85 9.71 29.92 29.92 0 0 1-13.88 3 30.36 30.36 0 0 1-8.63-1.23 22.05 22.05 0 0 1-7.4-3.73 19 19 0 0 1-5.18-6.19 18 18 0 0 1-1.94-8.55q0-8.2 4.24-12.87a26 26 0 0 1 10.64-7 52.48 52.48 0 0 1 13.66-2.87q7.26-.59 13.31-.58zm-4.89 7.77l-9 .36a52 52 0 0 0-10.35 1.72 22.86 22.86 0 0 0-8.48 4.24 9.67 9.67 0 0 0-3.53 7.91 11.19 11.19 0 0 0 1.37 5.68 11.38 11.38 0 0 0 3.67 3.89 15.66 15.66 0 0 0 5.1 2.15 25.25 25.25 0 0 0 5.68.65 21.65 21.65 0 0 0 9-1.73 18.56 18.56 0 0 0 6.4-4.67 18.75 18.75 0 0 0 3.81-6.9 28.5 28.5 0 0 0 1.22-8.41v-4.89zm41.58 47.02a30.37 30.37 0 0 0 10.86 9 32.53 32.53 0 0 0 14.88 3.37 31.92 31.92 0 0 0 12.22-2.08 21.3 21.3 0 0 0 8.13-5.68 21.88 21.88 0 0 0 4.45-8.41 37.61 37.61 0 0 0 1.37-10.28v-12.09h-.29a25.94 25.94 0 0 1-11.21 9.78 34.73 34.73 0 0 1-13.95 2.87 36.15 36.15 0 0 1-13.73-2.59 34.91 34.91 0 0 1-11.15-7.11 32.92 32.92 0 0 1-7.48-10.86 34.11 34.11 0 0 1-2.73-13.66 35.65 35.65 0 0 1 2.59-13.66 35.29 35.29 0 0 1 7.12-11.08 32.05 32.05 0 0 1 10.78-7.4 34.81 34.81 0 0 1 13.74-2.66 38.44 38.44 0 0 1 6.39.57 30.32 30.32 0 0 1 6.76 2 31 31 0 0 1 12.87 10.35h.29v-11.2h9.49v66.73A53.48 53.48 0 0 1 2688 853a28.68 28.68 0 0 1-5.32 11.36 30.19 30.19 0 0 1-11 8.63q-7 3.45-18.4 3.45a46.33 46.33 0 0 1-18-3.3 41.93 41.93 0 0 1-14.38-10.21zm1.73-48a25.63 25.63 0 0 0 1.94 10 26.06 26.06 0 0 0 5.32 8.2 25.75 25.75 0 0 0 7.91 5.61 23.26 23.26 0 0 0 9.85 2.08 26.38 26.38 0 0 0 18.11-7.11 22.92 22.92 0 0 0 5.54-8.13 26.14 26.14 0 0 0 1.8-10.64 28.58 28.58 0 0 0-1.73-10 24 24 0 0 0-5-8.2 24.36 24.36 0 0 0-8.05-5.61 26.2 26.2 0 0 0-10.64-2.08 23.26 23.26 0 0 0-9.85 2.08 25.75 25.75 0 0 0-7.91 5.61 26.06 26.06 0 0 0-5.32 8.2 25.63 25.63 0 0 0-1.99 9.96zm87.55 3.42a28.69 28.69 0 0 0 2.44 9.49 24.76 24.76 0 0 0 12.94 12.8A23.2 23.2 0 0 0 2742 835a24 24 0 0 0 13.16-3.52 26.36 26.36 0 0 0 8.41-8.13l7.33 6a36.4 36.4 0 0 1-13.3 10.93 37.26 37.26 0 0 1-15.6 3.31 35.87 35.87 0 0 1-13.88-2.66 32.74 32.74 0 0 1-11-7.41 34.89 34.89 0 0 1-7.26-11.22 36.75 36.75 0 0 1-2.66-14.09 37.49 37.49 0 0 1 2.59-14.09 34.12 34.12 0 0 1 7.19-11.22 33.07 33.07 0 0 1 10.78-7.4 33.54 33.54 0 0 1 13.38-2.66 32.83 32.83 0 0 1 13.66 2.73 30.44 30.44 0 0 1 10.14 7.26 31.17 31.17 0 0 1 6.25 10.64 38.83 38.83 0 0 1 2.16 13v4.31zm45.72-7.76q0-9.65-5.75-15.61-5.75-5.96-16.1-6a23.14 23.14 0 0 0-8.92 1.79 25.31 25.31 0 0 0-7.55 4.82 24.11 24.11 0 0 0-5.17 6.9 17.76 17.76 0 0 0-2 8.06z"/><use href="#P"/><path d="M2947.21 783.23h-16v58.67h-9.49v-58.67h-14.24v-8.63h14.24v-18.4q0-13.38 6.18-19.06 6.18-5.68 16.39-5.68a30.31 30.31 0 0 1 4.1.29l4.1.72-1.73 8.63-3.59-.72a24.9 24.9 0 0 0-3.74-.29 13.41 13.41 0 0 0-6.33 1.3 8.92 8.92 0 0 0-3.74 3.66 16.16 16.16 0 0 0-1.72 5.54 49.7 49.7 0 0 0-.43 6.76v17.25h16zm85.99 0h-19.42v39.69a21.51 21.51 0 0 0 .72 6.11 8.57 8.57 0 0 0 2 3.67 7 7 0 0 0 3.09 1.8 14.77 14.77 0 0 0 3.95.5 18.69 18.69 0 0 0 5-.72 23.15 23.15 0 0 0 4.75-1.87l.43 8.77a30.48 30.48 0 0 1-12.8 2.45 24 24 0 0 1-5.68-.72 13.45 13.45 0 0 1-5.39-2.73 15.08 15.08 0 0 1-4-5.47 21.84 21.84 0 0 1-1.59-9.06v-42.42h-14.23v-8.63h14.23v-19h9.49v19h19.42zm12.94-50.04h9.49v52.2h.28a22.23 22.23 0 0 1 4-5 26.29 26.29 0 0 1 5.46-4 30.54 30.54 0 0 1 6.4-2.59 25.1 25.1 0 0 1 6.69-.93q12.95 0 19.13 6.83 6.18 6.83 6.18 19.48v42.72h-9.49v-37.24q0-11.22-3.88-17.19-3.88-5.97-14.38-6a36.22 36.22 0 0 0-4 .57 17.6 17.6 0 0 0-7 3.16 22.91 22.91 0 0 0-6.55 7.77q-2.88 5.18-2.87 14.38v34.55h-9.49zm86.56 77.65a28.7 28.7 0 0 0 2.45 9.49 24.76 24.76 0 0 0 12.94 12.8 23.2 23.2 0 0 0 9.35 1.87 24 24 0 0 0 13.15-3.52 26.4 26.4 0 0 0 8.42-8.13l7.33 6a36.48 36.48 0 0 1-13.3 10.93 37.29 37.29 0 0 1-15.6 3.31 35.83 35.83 0 0 1-13.88-2.66 32.64 32.64 0 0 1-11-7.41 34.89 34.89 0 0 1-7.26-11.22 36.56 36.56 0 0 1-2.66-14.09 37.69 37.69 0 0 1 2.58-14.09 34.3 34.3 0 0 1 7.2-11.22 33 33 0 0 1 10.78-7.4 33.52 33.52 0 0 1 13.37-2.66 32.79 32.79 0 0 1 13.66 2.73 30.23 30.23 0 0 1 10.14 7.26 31.2 31.2 0 0 1 6.26 10.64 39.08 39.08 0 0 1 2.15 13v4.31zm45.73-7.76q0-9.65-5.75-15.61-5.75-5.96-16.11-6a23.05 23.05 0 0 0-8.91 1.79 25.06 25.06 0 0 0-7.55 4.82 24.15 24.15 0 0 0-5.18 6.9 17.88 17.88 0 0 0-1.94 8.06zm146.24-44.29a37.69 37.69 0 0 0-12.36-8.63 45 45 0 0 0-34.23.43 40 40 0 0 0-13.16 9.63 42.37 42.37 0 0 0-8.26 14 50.18 50.18 0 0 0 0 33.51 42.37 42.37 0 0 0 8.26 14 39.7 39.7 0 0 0 13.16 9.63 41.24 41.24 0 0 0 17.55 3.6 58.74 58.74 0 0 0 15.17-1.94 54.2 54.2 0 0 0 13-5.25v-34.04h-24.3v-9.49h34.65v49.9a74.15 74.15 0 0 1-18.91 7.69 78.45 78.45 0 0 1-19.62 2.66 54.32 54.32 0 0 1-21.07-4 50.46 50.46 0 0 1-28-28 59 59 0 0 1 0-42.85 50.46 50.46 0 0 1 28-28 54.51 54.51 0 0 1 21.07-4q12.21 0 21.06 3.38a44.66 44.66 0 0 1 15.75 10.28z"/><use href="#P" x="527.3"/><path d="M3496.94 832.41h54.5v9.49h-64.85V740.09h63.12v9.49h-52.77v34.66h49.32v9.49h-49.32zM3585.8 806l-24.44-31.35h12.94l18.7 25.12 17.83-25.17h11.8l-23.45 31.4 28.18 35.95h-12.94l-22.58-29.48-21.71 29.48h-12.08zm100.95-15.58a20.4 20.4 0 0 0-6.83-6.33 19.36 19.36 0 0 0-10-2.58 24.68 24.68 0 0 0-10.57 1.87 23.08 23.08 0 0 0-8 5.6 24.17 24.17 0 0 0-5 8.56 34.24 34.24 0 0 0 0 21.43 24.12 24.12 0 0 0 5 8.55 23 23 0 0 0 8 5.61 24.83 24.83 0 0 0 10.57 1.87 19.27 19.27 0 0 0 10-2.59 20.2 20.2 0 0 0 6.83-6.33l7.76 5.9a31.91 31.91 0 0 1-11.36 8.7 34.08 34.08 0 0 1-13.22 3 37.78 37.78 0 0 1-14.82-2.52 32.57 32.57 0 0 1-11.28-7.41 31.56 31.56 0 0 1-7.12-11.28 42.17 42.17 0 0 1 0-28.33 31.6 31.6 0 0 1 7.12-11.29 32.69 32.69 0 0 1 11.28-7.4 37.42 37.42 0 0 1 14.82-2.52 34.08 34.08 0 0 1 13.22 3 31.91 31.91 0 0 1 11.36 8.7zm26.89 20.42a28.94 28.94 0 0 0 2.44 9.49 24.76 24.76 0 0 0 12.94 12.8 23.2 23.2 0 0 0 9.35 1.87 24 24 0 0 0 13.16-3.52 26.36 26.36 0 0 0 8.41-8.13l7.33 6a36.4 36.4 0 0 1-13.3 10.93 37.26 37.26 0 0 1-15.6 3.31 35.82 35.82 0 0 1-13.87-2.59 32.68 32.68 0 0 1-11-7.41 35.23 35.23 0 0 1-7.26-11.22 36.75 36.75 0 0 1-2.66-14.09 37.49 37.49 0 0 1 2.59-14.09 34.28 34.28 0 0 1 7.19-11.22 33.07 33.07 0 0 1 10.78-7.4 33.57 33.57 0 0 1 13.38-2.66 32.83 32.83 0 0 1 13.66 2.73 30.23 30.23 0 0 1 10.14 7.26 31.17 31.17 0 0 1 6.25 10.64 38.83 38.83 0 0 1 2.16 13v4.31zm45.73-7.76q0-9.65-5.76-15.61-5.76-5.96-16.1-6a23.14 23.14 0 0 0-8.92 1.79 25.31 25.31 0 0 0-7.55 4.82 24.11 24.11 0 0 0-5.17 6.9 17.75 17.75 0 0 0-1.94 8.06zm39.25 38.82h-9.49V733.19h9.49zm36.67-93.18a6.37 6.37 0 0 1-2.16 5 6.77 6.77 0 0 1-9.49 0 6.8 6.8 0 0 1 0-9.92 6.77 6.77 0 0 1 9.49 0 6.37 6.37 0 0 1 2.16 4.92zm-2.16 93.18h-9.49v-67.3h9.49zm69.02-60.39l-39.4 51.76h40.84v8.63H3849V835l39.4-51.77H3851v-8.63h51.19zm21.72 29.33a28.69 28.69 0 0 0 2.44 9.49 24.76 24.76 0 0 0 12.94 12.8 23.2 23.2 0 0 0 9.35 1.87 24 24 0 0 0 13.16-3.52 26.36 26.36 0 0 0 8.41-8.13l7.33 6a36.4 36.4 0 0 1-13.3 10.93 37.26 37.26 0 0 1-15.6 3.31 35.87 35.87 0 0 1-13.88-2.66 32.74 32.74 0 0 1-11-7.41 34.89 34.89 0 0 1-7.26-11.22 36.75 36.75 0 0 1-2.66-14.09 37.49 37.49 0 0 1 2.59-14.09 34.12 34.12 0 0 1 7.19-11.22 33.07 33.07 0 0 1 10.78-7.4 33.54 33.54 0 0 1 13.38-2.66 32.83 32.83 0 0 1 13.66 2.73 30.44 30.44 0 0 1 10.14 7.26 31.17 31.17 0 0 1 6.25 10.64 38.83 38.83 0 0 1 2.16 13v4.31zm45.72-7.76q0-9.65-5.75-15.61-5.75-5.96-16.1-6a23.14 23.14 0 0 0-8.92 1.79 25.31 25.31 0 0 0-7.55 4.82 24.11 24.11 0 0 0-5.17 6.9 17.76 17.76 0 0 0-1.95 8.06zm79.24 38.82h-9.49V733.19h9.49zm36.66-93.18a6.36 6.36 0 0 1-2.15 5 6.864 6.864 0 1 1-9.49-9.92 6.77 6.77 0 0 1 9.49 0 6.36 6.36 0 0 1 2.15 4.92zm-2.15 93.18h-9.49v-67.3h9.49zm22.86-108.71h9.49v52.63h.29a24.81 24.81 0 0 1 5.46-5.9 34.24 34.24 0 0 1 6.62-4 31.4 31.4 0 0 1 7.11-2.3 36.3 36.3 0 0 1 7-.72 38.09 38.09 0 0 1 14.45 2.66 33.28 33.28 0 0 1 18.69 18.62 38.65 38.65 0 0 1 0 28.18A33.34 33.34 0 0 1 4156.6 841a38.09 38.09 0 0 1-14.45 2.66 36.3 36.3 0 0 1-7-.72 31.91 31.91 0 0 1-7.11-2.3 34.29 34.29 0 0 1-6.62-4 24.57 24.57 0 0 1-5.46-5.89h-.29v11.15h-9.49zm61.4 75.06a30.1 30.1 0 0 0-1.8-10.49 25.39 25.39 0 0 0-5.1-8.49 24.17 24.17 0 0 0-8-5.68 25.7 25.7 0 0 0-10.57-2.08 27.24 27.24 0 0 0-10.79 2.08 26.65 26.65 0 0 0-8.48 5.68 25.66 25.66 0 0 0-5.61 8.49 28.4 28.4 0 0 0 0 21 25.52 25.52 0 0 0 5.61 8.48 26.32 26.32 0 0 0 8.48 5.68 27.25 27.25 0 0 0 10.79 2.09 25.7 25.7 0 0 0 10.57-2.09 23.89 23.89 0 0 0 8-5.68 25.24 25.24 0 0 0 5.1-8.48 30.16 30.16 0 0 0 1.8-10.51zm27.47-12.65l-.22-9.06a439.87 439.87 0 0 1-.36-11.94h9.35v12.51h.28a20.63 20.63 0 0 1 2.88-5.24 22.61 22.61 0 0 1 4.53-4.53 22.09 22.09 0 0 1 6.18-3.24 24.41 24.41 0 0 1 8-1.22 26 26 0 0 1 7.05.86l-1.87 9.35a16 16 0 0 0-5.46-.72 19.62 19.62 0 0 0-9.35 2.08 20.73 20.73 0 0 0-6.47 5.32 22 22 0 0 0-3.81 7 23 23 0 0 0-1.22 7.19v38h-9.49zm89.87 5.03v-1.72q0-17.4-17.26-17.4a29.71 29.71 0 0 0-20.56 7.9l-5.75-6.75q9.48-9.78 28.47-9.78a31 31 0 0 1 9.42 1.44 21.31 21.31 0 0 1 7.83 4.38 21.73 21.73 0 0 1 5.32 7.41 25.57 25.57 0 0 1 2 10.64v30q0 3.88.36 8.13l.79 7h-9.21c-.28-1.63-.5-3.4-.64-5.32l-.22-5.61h-.29a25.65 25.65 0 0 1-9.85 9.71 29.87 29.87 0 0 1-13.87 3 30.31 30.31 0 0 1-8.63-1.23 22.1 22.1 0 0 1-7.41-3.73 19 19 0 0 1-5.17-6.19 17.92 17.92 0 0 1-1.94-8.55q0-8.2 4.24-12.87a25.89 25.89 0 0 1 10.64-7 52.39 52.39 0 0 1 13.66-2.87q7.26-.59 13.3-.58zm-4.89 7.77q-3.6 0-9 .36a51.92 51.92 0 0 0-10.35 1.72 22.91 22.91 0 0 0-8.49 4.24 9.66 9.66 0 0 0-3.52 7.91 11.09 11.09 0 0 0 1.37 5.68 11.45 11.45 0 0 0 3.66 3.89 15.71 15.71 0 0 0 5.11 2.15 25.25 25.25 0 0 0 5.68.65 21.6 21.6 0 0 0 9-1.73 18.27 18.27 0 0 0 10.21-11.57 28.18 28.18 0 0 0 1.23-8.41v-4.89zm37.38-12.8q0-4.46-.21-9.06c-.14-3.07-.27-7-.36-11.94h9.35v12.51h.28a20.63 20.63 0 0 1 2.88-5.24 22.21 22.21 0 0 1 10.71-7.77 24.41 24.41 0 0 1 8-1.22 26 26 0 0 1 7 .86l-1.87 9.35a16 16 0 0 0-5.46-.72 19.62 19.62 0 0 0-9.35 2.08 20.73 20.73 0 0 0-6.47 5.32 22 22 0 0 0-3.81 7 23 23 0 0 0-1.22 7.19v38h-9.5zm71.76 34.65l20.56-55.65h11.5l-33.65 84.84a34.64 34.64 0 0 1-7.69 12.37q-4.66 4.61-13.44 4.6c-1.44 0-2.9 0-4.39-.14a17.8 17.8 0 0 1-4.38-.86l1-9.21a15.26 15.26 0 0 0 7.19 1.58 10.15 10.15 0 0 0 7.91-3.16 27.44 27.44 0 0 0 5-8.91l4.89-13-27.61-68.16h11.94z"/></g></svg>