<svg viewBox="0 0 3309 1224" xmlns="http://www.w3.org/2000/svg" xmlns:xlink="http://www.w3.org/1999/xlink" xml:space="preserve" overflow="hidden"><defs><linearGradient x1="520.828" y1="364.024" x2="615.846" y2="404.895" gradientUnits="userSpaceOnUse" spreadMethod="pad" id="fill0"><stop offset="0" stop-color="#5A9FD4" stop-opacity="1"/><stop offset="1" stop-color="#306998" stop-opacity="1"/></linearGradient><linearGradient x1="657.277" y1="434.791" x2="618.401" y2="405.36" gradientUnits="userSpaceOnUse" spreadMethod="pad" id="fill1"><stop offset="0" stop-color="#FFD43B" stop-opacity="1"/><stop offset="1" stop-color="#FFE873" stop-opacity="1"/></linearGradient></defs><g transform="translate(-545 -655)"><g><g><g><g><path d="M590.526 336.694C585.334 338.396 580.295 340.534 575.463 343.085 562.531 349.995 561.718 355.886 564.755 365.245L568.797 377.609 601.234 366.988 602.578 371.112 570.146 381.732 557.976 385.712C548.549 388.792 542.145 397.158 543.088 408.778 544.15 422.11 546.537 429.864 553.865 441.747 559.313 450.593 567.054 455.635 576.481 452.549L587.633 448.906 582.785 434.087C579.287 423.385 585.459 410.909 596.461 407.316L628.855 396.695C637.855 393.679 642.705 383.937 639.689 374.937 639.687 374.93 639.684 374.923 639.682 374.916L629.586 344.028C626.712 335.238 617.141 331.065 607.857 332.47 601.973 333.394 596.176 334.807 590.526 336.694ZM576.238 352.363C579.635 351.195 583.335 353.002 584.503 356.398 585.671 359.795 583.864 363.496 580.467 364.663 577.07 365.831 573.37 364.024 572.202 360.628 572.193 360.603 572.185 360.578 572.177 360.553 571.045 357.171 572.86 353.509 576.238 352.363Z" fill="url(#fill0)" fill-rule="nonzero" transform="matrix(1 0 0 1.00045 797 917.015)"/><path d="M639.02 359.235 643.73 373.604C647.379 384.769 640.988 397.264 630.192 400.794L597.792 411.415C588.92 414.32 584.047 424.31 586.965 433.2L597.067 464.082C599.941 472.872 609.275 475.546 618.671 475.265 629.917 474.921 639.913 472.253 651.065 464.644 658.456 459.608 664.953 452.224 661.892 442.859L657.868 430.501 625.456 441.078 624.132 436.973 656.531 426.353 672.775 421.055C682.203 417.968 683.565 410.246 683.621 399.307 683.683 388.061 680.347 378.315 672.844 366.345 667.446 357.723 660.686 352.119 651.246 355.205ZM646.373 443.402C649.77 442.234 653.47 444.041 654.638 447.438 655.805 450.835 653.998 454.535 650.602 455.703 647.205 456.871 643.505 455.064 642.337 451.667 642.324 451.63 642.312 451.592 642.299 451.555 641.157 448.19 642.959 444.536 646.325 443.393 646.341 443.388 646.357 443.382 646.373 443.377Z" fill="url(#fill1)" fill-rule="nonzero" transform="matrix(1 0 0 1.00045 797 917.015)"/><path d="M482.524 30.0633C535.629-17.8181 599.354 67.886 534.629 99.2738Z" stroke="#000000" stroke-width="3.74854" stroke-linecap="butt" stroke-linejoin="round" stroke-miterlimit="4" stroke-opacity="1" fill="#6AD7E5" fill-rule="nonzero" fill-opacity="1" transform="matrix(1 0 0 1.00045 797 917.015)"/><path d="M163.48 121.334C90.7521 96.5873 150.691 5.62281 207.9 47.444Z" stroke="#000000" stroke-width="3.74854" stroke-linecap="butt" stroke-linejoin="round" stroke-miterlimit="4" stroke-opacity="1" fill="#6AD7E5" fill-rule="nonzero" fill-opacity="1" transform="matrix(1 0 0 1.00045 797 917.015)"/><path d="M524.795 72.4717C533.273 65.4245 538.809 57.0777 530.649 47.2753 523.077 38.1914 513.269 41.4214 504.778 48.5248ZM171.958 95.7189C162.48 90.0586 155.714 82.6678 162.299 71.7158 168.378 61.5822 178.543 63.2816 188.033 68.9419Z" fill="#000000" fill-rule="nonzero" fill-opacity="1" transform="matrix(1 0 0 1.00045 797 917.015)"/><path d="M347.158 1.96798C421.161 0.762203 490.734 10.2085 528.05 80.7373 561.787 159.894 551.666 246.048 557.976 330.209 563.399 402.474 574.189 485.898 541.732 553.453 507.596 624.538 419.649 643.73 346.927 642.299 289.799 641.169 220.539 623.663 187.489 572.071 148.705 511.507 165.142 420.255 166.741 352.156 168.697 271.432 142.301 190.969 167.516 111.625 193.637 29.3136 267.477 9.60251 347.158 1.98048" stroke="#000000" stroke-width="3.74854" stroke-linecap="round" stroke-linejoin="round" stroke-miterlimit="4" stroke-opacity="1" fill="#6AD7E5" fill-rule="nonzero" fill-opacity="1" transform="matrix(1 0 0 1.00045 797 917.015)"/><path d="M328.678 156.751C313.896 158.251 302.126 176.038 310.029 189.82 320.5 208.044 342.91 187.639 357.098 189.301 373.386 189.351 386.999 206.057 399.844 191.675 414.126 175.675 393.059 160.656 376.691 154.059Z" stroke="#231F20" stroke-width="3.74854" stroke-linecap="butt" stroke-linejoin="round" stroke-miterlimit="4" stroke-opacity="1" fill="#F6D2A2" fill-rule="nonzero" fill-opacity="1" transform="matrix(1 0 0 1.00045 797 917.015)"/><path d="M326.798 156.052C325.273 130.474 374.073 126.482 380.183 147.792 386.293 169.103 329.509 174.976 326.798 156.052Z" fill="#000000" fill-rule="nonzero" fill-opacity="1" transform="matrix(1 0 0 1.00045 797 917.015)"/><path d="M378.771 192.719C378.971 202.758 381.383 213.96 379.689 224.731 377.19 229.623 372.192 230.229 367.863 232.228 361.86 231.385 356.713 227.515 354.237 221.982 352.494 209.806 354.443 197.954 354.605 185.784Z" stroke="#000000" stroke-width="3.74854" stroke-linecap="butt" stroke-linejoin="round" stroke-miterlimit="4" stroke-opacity="1" fill="#FFFFFF" fill-rule="nonzero" fill-opacity="1" transform="matrix(1 0 0 1.00045 797 917.015)"/><path d="M211.124 116.586C229.461 183.547 336.85 164.605 331.702 97.1871 325.498 16.4811 193.293 34.2366 211.124 116.586" stroke="#000000" stroke-width="3.74854" stroke-linecap="round" stroke-linejoin="round" stroke-miterlimit="4" stroke-opacity="1" fill="#FFFFFF" fill-rule="nonzero" fill-opacity="1" transform="matrix(1 0 0 1.00045 797 917.015)"/><path d="M361.809 101.648C376.341 178.68 502.304 156.189 482.893 78.6006 465.487 8.96525 356.217 30.0945 361.809 101.648" stroke="#000000" stroke-width="3.74854" stroke-linecap="round" stroke-linejoin="round" stroke-miterlimit="4" stroke-opacity="1" fill="#FFFFFF" fill-rule="nonzero" fill-opacity="1" transform="matrix(1 0 0 1.00045 797 917.015)"/><path d="M594.331 348.458C591.501 347.446 588.508 346.752 586.553 344.26" stroke="#000000" stroke-width="3.74854" stroke-linecap="round" stroke-linejoin="round" stroke-miterlimit="4" stroke-opacity="1" fill="#C6B198" fill-rule="nonzero" fill-opacity="1" transform="matrix(1 0 0 1.00045 797 917.015)"/><path d="M326.598 193.843C318.988 213.211 331.964 251.446 353.019 222.713 351.276 210.543 353.225 198.691 353.387 186.515Z" stroke="#000000" stroke-width="3.74854" stroke-linecap="butt" stroke-linejoin="round" stroke-miterlimit="4" stroke-opacity="1" fill="#FFFFFF" fill-rule="nonzero" fill-opacity="1" transform="matrix(1 0 0 1.00045 797 917.015)"/><path d="M599.004 340.174C598.379 359.485 578.931 350.882 570.09 344.965 561.706 339.38 559.357 344.16 558.464 332.895 557.876 325.473 556.889 318.051 557.214 310.573 569.709 309.223 583.454 312.003 593.825 319.319 599.173 323.068 609.281 335.213 599.016 340.199" stroke="#000000" stroke-width="3.74854" stroke-linecap="round" stroke-linejoin="round" stroke-miterlimit="4" stroke-opacity="1" fill="#F6D2A2" fill-rule="nonzero" fill-opacity="1" transform="matrix(1 0 0 1.00045 797 917.015)"/><path d="M536.21 640.107C532.792 633.584 531.555 625.925 525.97 620.739" stroke="#000000" stroke-width="3.74854" stroke-linecap="round" stroke-linejoin="round" stroke-miterlimit="4" stroke-opacity="1" fill="none" fill-rule="nonzero" transform="matrix(1 0 0 1.00045 797 917.015)"/><path d="M515.655 589.951C530.649 598.898 558.295 626.275 536.21 640.107 515.099 660.099 502.473 619.121 483.543 613.711 491.496 602.59 501.586 592.413 515.655 589.951Z" stroke="#000000" stroke-width="3.74854" stroke-linecap="butt" stroke-linejoin="round" stroke-miterlimit="4" stroke-opacity="1" fill="#F6D2A2" fill-rule="nonzero" fill-opacity="1" transform="matrix(1 0 0 1.00045 797 917.015)"/><path d="M439.404 106.209C446.526 113.768 446.695 126.245 439.86 134.073 433.025 141.901 421.661 142.057 414.588 134.466 407.516 126.876 407.291 114.43 414.132 106.602 420.973 98.774 432.331 98.6178 439.404 106.209" fill="#000000" fill-rule="nonzero" fill-opacity="1" transform="matrix(1 0 0 1.00045 797 917.015)"/><path d="M432.669 124.495C434.353 126.542 434.407 129.479 432.8 131.586 431.571 133.253 429.225 133.607 427.558 132.379 427.283 132.176 427.037 131.937 426.827 131.667 425.147 129.618 425.098 126.681 426.709 124.576 427.937 122.91 430.284 122.555 431.95 123.783 431.95 123.783 431.95 123.783 431.95 123.783 432.224 123.988 432.469 124.227 432.681 124.495" fill="#FFFFFF" fill-rule="nonzero" fill-opacity="1" transform="matrix(1 0 0 1.00045 797 917.015)"/><path d="M281.209 116.555C288.419 124.139 288.631 136.622 281.671 144.419 275.448 151.62 264.565 152.415 257.362 146.193 256.862 145.764 256.389 145.305 255.944 144.819 248.734 137.234 248.522 124.751 255.488 116.954 261.692 109.747 272.563 108.934 279.77 115.138 280.277 115.573 280.757 116.038 281.209 116.53" fill="#000000" fill-rule="nonzero" fill-opacity="1" transform="matrix(1 0 0 1.00045 797 917.015)"/><path d="M274.268 137.284C275.957 139.33 276.009 142.271 274.393 144.375 273.082 146.07 270.646 146.382 268.951 145.071 268.947 145.068 268.943 145.065 268.939 145.062 268.709 144.89 268.5 144.693 268.314 144.475 266.623 142.431 266.569 139.489 268.183 137.384 269.463 135.687 271.876 135.349 273.573 136.63 273.824 136.819 274.052 137.039 274.249 137.284" fill="#FFFFFF" fill-rule="nonzero" fill-opacity="1" transform="matrix(1 0 0 1.00045 797 917.015)"/><path d="M126.201 358.523C128.987 357.436 131.961 356.648 133.81 354.074" stroke="#000000" stroke-width="1.87427" stroke-linecap="round" stroke-linejoin="round" stroke-miterlimit="4" stroke-opacity="1" fill="#C6B198" fill-rule="nonzero" fill-opacity="1" transform="matrix(1 0 0 1.00045 797 917.015)"/><path d="M125.838 358.448C127.088 377.746 146.243 368.513 154.877 362.302 163.08 356.436 165.579 361.147 166.123 349.857 166.466 342.429 167.222 334.969 166.691 327.516 154.115 326.591 140.539 329.79 130.374 337.425 125.151 341.367 115.424 353.806 125.845 358.448" stroke="#000000" stroke-width="3.74854" stroke-linecap="round" stroke-linejoin="round" stroke-miterlimit="4" stroke-opacity="1" fill="#F6D2A2" fill-rule="nonzero" fill-opacity="1" transform="matrix(1 0 0 1.00045 797 917.015)"/><path d="M237.882 356.986 111.057 356.986C102.31 356.986 95.1816 364.289 95.1816 373.317L95.1816 442.665 237.882 528.338 309.254 559.338 380.608 528.338 380.608 442.677Z" fill="#21A366" fill-rule="nonzero" fill-opacity="1" transform="matrix(1 0 0 1.00045 797 917.015)"/><path d="M95.1504 442.646 237.882 442.646 237.882 528.307 95.1504 528.307Z" fill="#107C41" fill-rule="nonzero" fill-opacity="1" transform="matrix(1 0 0 1.00045 797 917.015)"/><path d="M364.777 356.986 237.913 356.986 237.913 442.646 380.645 442.646 380.645 373.298C380.653 368.988 378.989 364.843 376.003 361.734 373.071 358.678 369.012 356.961 364.777 356.986Z" fill="#33C481" fill-rule="nonzero" fill-opacity="1" transform="matrix(1 0 0 1.00045 797 917.015)"/><path d="M237.882 528.307 95.1504 528.307 95.1504 683.327C95.1504 692.355 102.248 699.658 111.025 699.658L364.777 699.658C373.523 699.658 380.645 692.355 380.645 683.327L380.645 613.979Z" fill="#185C37" fill-rule="nonzero" fill-opacity="1" transform="matrix(1 0 0 1.00045 797 917.015)"/><path d="M237.882 528.307 380.614 528.307 380.614 613.967 237.882 613.967Z" fill="#107C41" fill-rule="nonzero" fill-opacity="1" transform="matrix(1 0 0 1.00045 797 917.015)"/><path d="M186.34 438.229 95.1254 438.229 95.1254 646.273 186.34 646.273C195.086 646.236 202.177 638.97 202.209 629.942L202.209 454.56C202.177 445.533 195.111 438.267 186.34 438.229Z" fill="#165634" fill-rule="nonzero" fill-opacity="1" transform="matrix(1 0 0 1.00045 797 917.015)"/><path d="M174.469 430.401 95.1254 430.401 95.1254 638.445 174.469 638.445C183.216 638.445 190.307 631.141 190.338 622.114L190.338 446.701C190.276 437.698 183.21 430.457 174.469 430.401Z" fill="#13452B" fill-rule="nonzero" fill-opacity="1" transform="matrix(1 0 0 1.00045 797 917.015)"/><path d="M15.8688 430.401 174.469 430.401C183.216 430.401 190.338 437.698 190.338 446.726L190.338 609.912C190.338 618.94 183.241 626.243 174.469 626.243L15.8688 626.243C11.6297 626.229 7.57543 624.506 4.6232 621.464 1.64103 618.359-0.0168918 614.217-2.38326e-07 609.912L0 446.701C0 437.698 7.09723 430.401 15.8688 430.401Z" fill="#107C41" fill-rule="nonzero" fill-opacity="1" transform="matrix(1 0 0 1.00045 797 917.015)"/><path d="M44.9825 583.466 77.4698 531.668 47.7001 480.125 71.6346 480.125 87.8782 513.05C89.3589 516.174 90.3773 518.492 91.002 520.053L91.2144 520.053C92.2765 517.554 93.4073 515.143 94.5694 512.788L111.919 480.125 133.917 480.125 103.372 531.355 134.691 583.466 111.313 583.466 92.5702 547.287C91.6832 545.754 90.9387 544.144 90.346 542.476L90.0586 542.476C89.5024 544.107 88.778 545.675 87.897 547.155L68.5733 583.466Z" fill="#FFFFFF" fill-rule="nonzero" fill-opacity="1" transform="matrix(1 0 0 1.00045 797 917.015)"/><path d="M971.702 257.4 868.543 257.4 868.543 283.108C868.478 289.981 871.22 296.583 876.133 301.389 881.194 306.553 887.233 309.136 894.251 309.136L920.266 309.136C937.401 309.136 945.973 300.46 945.981 283.108L971.69 283.108C967.766 317.599 950.625 334.844 920.266 334.844L868.53 334.844C854.486 334.844 842.353 329.784 832.132 319.663 821.911 309.542 816.8 297.357 816.8 283.108L816.8 205.639C816.8 191.594 821.911 179.515 832.132 169.403 842.353 159.29 854.486 154.229 868.53 154.221L920.266 154.221C934.311 154.221 946.389 159.282 956.502 169.403 966.615 179.524 971.675 191.602 971.684 205.639ZM868.543 231.66 920.266 231.66 920.266 205.639C920.342 198.811 917.596 192.255 912.675 187.521 907.842 182.557 901.172 179.81 894.245 179.93 880.09 180.042 868.642 191.49 868.53 205.645ZM1023.44 334.819 1023.44 296.085C1023.44 280.803 1027.77 268.876 1036.45 260.305 1045.12 251.733 1058.03 246.414 1075.18 244.348 1058.04 242.495 1045.13 237.228 1036.45 228.548 1027.77 219.868 1023.43 207.998 1023.44 192.937L1023.44 154.202 1075.17 154.202 1075.17 205.626C1075.04 212.555 1077.79 219.226 1082.76 224.056 1087.49 228.981 1094.05 231.729 1100.88 231.647 1115.19 231.706 1126.84 220.151 1126.9 205.839 1126.9 205.768 1126.9 205.697 1126.9 205.626L1126.9 154.215 1178.32 154.215 1178.32 192.95C1178.32 208.023 1174.04 219.893 1165.46 228.561 1156.89 237.228 1144.04 242.495 1126.9 244.361 1144.04 246.443 1156.9 251.814 1165.46 260.473 1174.03 269.133 1178.32 281.003 1178.32 296.085L1178.32 334.819 1126.9 334.819 1126.9 283.083C1126.98 276.255 1124.23 269.698 1119.31 264.965 1114.47 260.01 1107.81 257.272 1100.88 257.4 1086.73 257.512 1075.28 268.956 1075.17 283.108L1075.17 334.844ZM1359.24 205.639 1333.53 205.639C1331.45 188.504 1322.77 179.932 1307.51 179.924 1293.35 180.036 1281.91 191.483 1281.79 205.639L1281.79 283.108C1281.73 289.981 1284.47 296.583 1289.38 301.389 1294.45 306.553 1300.48 309.136 1307.5 309.136 1322.78 309.136 1331.46 300.46 1333.52 283.108L1359.24 283.108C1357.16 317.599 1339.91 334.844 1307.5 334.844L1281.79 334.844C1267.74 334.844 1255.61 329.784 1245.39 319.663 1235.17 309.542 1230.06 297.357 1230.06 283.108L1230.06 205.639C1230.06 191.594 1235.17 179.515 1245.39 169.403 1255.61 159.29 1267.74 154.229 1281.79 154.221L1307.5 154.221C1340.14 154.217 1357.39 171.356 1359.24 205.639ZM1565.56 257.4 1462.4 257.4 1462.4 283.108C1462.33 289.981 1465.08 296.583 1469.99 301.389 1475.05 306.553 1481.09 309.136 1488.11 309.136L1514.13 309.136C1531.26 309.136 1539.84 300.46 1539.84 283.108L1565.55 283.108C1561.63 317.599 1544.49 334.844 1514.13 334.844L1462.39 334.844C1448.35 334.844 1436.22 329.784 1425.99 319.663 1415.77 309.542 1410.67 297.349 1410.7 283.083L1410.7 205.614C1410.7 191.569 1415.81 179.49 1426.03 169.378 1436.25 159.265 1448.39 154.204 1462.43 154.196L1514.17 154.196C1528.21 154.196 1540.29 159.257 1550.4 169.378 1560.51 179.499 1565.57 191.577 1565.58 205.614ZM1462.4 231.66 1514.13 231.66 1514.13 205.639C1514.21 198.811 1511.46 192.255 1506.54 187.521 1501.71 182.557 1495.04 179.81 1488.11 179.93 1473.96 180.042 1462.51 191.49 1462.4 205.645ZM1617.29 334.819 1617.29 102.46 1669.02 102.46 1669.02 334.819ZM1720.45 128.194 1720.45 102.46 1772.18 102.46 1772.18 128.175ZM1720.45 334.819 1720.45 154.215 1772.18 154.215 1772.18 334.819ZM1823.61 154.215 1978.5 154.215 1978.5 179.93 1875.34 309.111 1978.5 309.111 1978.5 334.819 1823.61 334.819 1823.61 309.111 1927.07 179.93 1823.61 179.93ZM2185.12 257.4 2081.96 257.4 2081.96 283.108C2081.9 289.981 2084.64 296.583 2089.55 301.389 2094.61 306.553 2100.65 309.136 2107.67 309.136L2133.69 309.136C2150.84 309.136 2159.41 300.46 2159.41 283.108L2185.12 283.108C2181.19 317.599 2164.05 334.844 2133.69 334.844L2081.96 334.844C2067.91 334.844 2055.78 329.784 2045.56 319.663 2035.34 309.542 2030.23 297.357 2030.23 283.108L2030.23 205.639C2030.23 191.594 2035.34 179.515 2045.56 169.403 2055.78 159.29 2067.91 154.229 2081.96 154.221L2133.69 154.221C2147.74 154.221 2159.82 159.282 2169.93 169.403 2180.04 179.524 2185.1 191.602 2185.1 205.639ZM2081.96 231.66 2133.7 231.66 2133.7 205.639C2133.78 198.811 2131.03 192.255 2126.11 187.521 2121.28 182.557 2114.61 179.81 2107.68 179.93 2093.52 180.042 2082.08 191.49 2081.96 205.645ZM2236.86 257.4 2236.86 231.66 2366.04 231.66 2366.04 257.4ZM2417.46 154.215 2469.19 154.215 2469.19 179.93C2469.19 171.258 2471.36 164.802 2475.7 160.562 2480.04 156.322 2486.45 154.207 2494.91 154.215L2520.93 154.215C2534.97 154.215 2547.05 159.275 2557.17 169.396 2567.28 179.518 2572.34 191.596 2572.34 205.632L2572.34 283.102C2572.34 297.355 2567.28 309.54 2557.17 319.657 2547.05 329.773 2534.97 334.834 2520.93 334.838L2469.19 334.838 2469.19 386.574 2417.46 386.574ZM2469.19 309.111 2494.91 309.111C2509.22 309.17 2520.87 297.615 2520.93 283.302 2520.93 283.229 2520.93 283.156 2520.93 283.083L2520.93 205.614C2521.01 198.786 2518.26 192.23 2513.34 187.496 2508.51 182.531 2501.84 179.785 2494.91 179.905 2480.75 180.017 2469.31 191.465 2469.19 205.62ZM2650.11 360.534C2651.36 377.882 2659.93 386.556 2675.82 386.556L2701.53 386.556C2715.85 386.614 2727.5 375.06 2727.56 360.747 2727.56 360.676 2727.56 360.605 2727.56 360.534L2727.56 309.111C2725.47 326.254 2716.8 334.824 2701.53 334.819L2675.83 334.819C2661.79 334.819 2649.65 329.759 2639.43 319.638 2629.21 309.517 2624.1 297.332 2624.1 283.083L2624.1 154.215 2675.83 154.215 2675.83 283.083C2675.77 289.956 2678.51 296.558 2683.42 301.364 2688.48 306.528 2694.52 309.111 2701.54 309.111 2708.5 309.225 2715.18 306.415 2719.97 301.364 2724.88 296.558 2727.63 289.956 2727.56 283.083L2727.56 154.215 2778.99 154.215 2778.99 360.534C2778.99 374.571 2773.93 386.703 2763.81 396.933 2753.69 407.162 2741.61 412.273 2727.57 412.264L2675.83 412.264C2645.48 412.264 2628.23 395.021 2624.1 360.534Z" fill="#FFFFFF" fill-rule="nonzero" fill-opacity="1" transform="matrix(1 0 0 1.00045 797 917.015)"/><path d="M822.71 525.982 815.163 525.982 842.834 462.376 849.125 462.376 876.796 525.982 869.249 525.982 862.239 509.276 829.751 509.276ZM832.144 503.341 859.727 503.341 845.983 469.923ZM910.395 462.376 928.9 462.376C935.369 462.376 940.475 463.784 944.219 466.599 947.964 469.415 949.838 473.667 949.842 479.357 949.842 485.046 947.968 489.313 944.219 492.158 940.471 495.003 935.364 496.425 928.9 496.425L916.861 496.425 916.861 525.982 910.395 525.982ZM916.861 490.49 927.282 490.49C929.753 490.542 932.219 490.239 934.604 489.59 936.349 489.126 937.983 488.317 939.409 487.21 940.563 486.284 941.46 485.077 942.014 483.705 942.566 482.314 942.842 480.829 942.826 479.332 942.834 477.87 942.558 476.421 942.014 475.065 941.453 473.684 940.558 472.465 939.409 471.516 938 470.412 936.373 469.62 934.635 469.192 932.245 468.575 929.782 468.288 927.313 468.336L916.892 468.336ZM975.438 518.704 988.283 483.936 995.468 483.936 974.445 536.941C973.407 539.827 971.77 542.461 969.641 544.669 967.691 546.589 964.893 547.547 961.244 547.543 960.344 547.543 959.426 547.543 958.501 547.455 957.568 547.391 956.647 547.21 955.759 546.918L956.383 541.164C957.777 541.855 959.32 542.194 960.875 542.151 962.732 542.249 964.539 541.527 965.817 540.177 967.196 538.532 968.255 536.644 968.941 534.61L971.996 526.488 954.746 483.905 962.206 483.905ZM1024.84 489.328 1012.73 489.328 1012.73 514.125C1012.7 515.412 1012.85 516.698 1013.18 517.942 1013.4 518.797 1013.83 519.584 1014.43 520.235 1014.96 520.77 1015.63 521.158 1016.36 521.359 1017.17 521.576 1018.02 521.681 1018.86 521.672 1019.92 521.664 1020.97 521.512 1021.98 521.222 1023.01 520.943 1024.01 520.551 1024.95 520.053L1025.22 525.533C1022.69 526.613 1019.97 527.135 1017.22 527.063 1016.03 527.056 1014.83 526.905 1013.67 526.613 1012.44 526.309 1011.28 525.725 1010.31 524.908 1009.23 523.971 1008.37 522.803 1007.81 521.49 1007.08 519.694 1006.75 517.765 1006.82 515.83L1006.82 489.328 997.923 489.328 997.923 483.936 1006.82 483.936 1006.82 472.066 1012.73 472.066 1012.73 483.936 1024.86 483.936ZM1032.93 458.065 1038.86 458.065 1038.86 490.677 1039.04 490.677C1039.72 489.521 1040.56 488.469 1041.54 487.554 1042.56 486.577 1043.71 485.737 1044.95 485.055 1046.22 484.365 1047.56 483.822 1048.95 483.436 1050.31 483.055 1051.71 482.86 1053.13 482.855 1058.52 482.855 1062.5 484.278 1065.07 487.123 1067.65 489.967 1068.94 494.024 1068.94 499.293L1068.94 525.982 1063.01 525.982 1063.01 502.716C1063.01 498.043 1062.2 494.463 1060.58 491.977 1058.96 489.49 1055.97 488.241 1051.6 488.228 1050.76 488.301 1049.92 488.42 1049.1 488.584 1047.51 488.915 1046.02 489.589 1044.72 490.559 1043.02 491.852 1041.62 493.511 1040.64 495.413 1039.44 497.571 1038.84 500.565 1038.84 504.397L1038.84 525.982 1032.91 525.982ZM1125.37 504.959C1125.4 507.974 1124.84 510.965 1123.71 513.762 1121.59 519.08 1117.38 523.295 1112.07 525.42 1109.19 526.555 1106.12 527.119 1103.03 527.082 1099.97 527.114 1096.94 526.549 1094.1 525.42 1088.77 523.31 1084.55 519.101 1082.42 513.781 1080.2 508.121 1080.2 501.835 1082.42 496.175 1083.48 493.555 1085.05 491.173 1087.04 489.166 1089.06 487.163 1091.46 485.59 1094.1 484.542 1096.94 483.413 1099.97 482.849 1103.03 482.88 1106.12 482.843 1109.19 483.408 1112.07 484.542 1117.39 486.651 1121.61 490.858 1123.74 496.175 1124.86 498.968 1125.41 501.953 1125.37 504.959ZM1118.91 504.959C1118.92 502.725 1118.54 500.506 1117.78 498.406 1117.08 496.444 1115.99 494.641 1114.59 493.102 1113.19 491.587 1111.48 490.379 1109.59 489.553 1105.36 487.82 1100.62 487.82 1096.39 489.553 1094.51 490.373 1092.83 491.582 1091.45 493.102 1090.08 494.654 1089.02 496.454 1088.33 498.406 1086.83 502.652 1086.83 507.28 1088.33 511.526 1089.02 513.476 1090.08 515.275 1091.45 516.823 1092.82 518.346 1094.51 519.557 1096.39 520.372 1100.62 522.113 1105.36 522.113 1109.59 520.372 1111.49 519.551 1113.19 518.342 1114.59 516.823 1116 515.287 1117.08 513.486 1117.78 511.526 1118.56 509.423 1118.95 507.199 1118.94 504.959ZM1141.81 483.936 1142.04 487.31 1142.09 490.677 1142.26 490.677C1142.94 489.521 1143.78 488.469 1144.76 487.554 1145.78 486.577 1146.93 485.737 1148.17 485.055 1149.44 484.366 1150.78 483.823 1152.17 483.436 1153.53 483.055 1154.94 482.86 1156.35 482.855 1161.74 482.855 1165.72 484.278 1168.29 487.123 1170.87 489.967 1172.16 494.024 1172.16 499.293L1172.16 525.982 1166.23 525.982 1166.23 502.716C1166.23 498.043 1165.42 494.463 1163.8 491.977 1162.18 489.49 1159.19 488.241 1154.82 488.228 1153.98 488.301 1153.15 488.42 1152.32 488.584 1150.73 488.915 1149.24 489.589 1147.95 490.559 1146.24 491.852 1144.84 493.511 1143.86 495.413 1142.66 497.571 1142.06 500.565 1142.07 504.397L1142.07 525.982 1136.13 525.982 1136.13 493.189 1136 488.878 1135.69 483.936ZM1211.08 483.936 1217.03 483.936 1217.03 490.946 1217.21 490.946C1218.14 489.54 1219.29 488.295 1220.62 487.26 1221.9 486.273 1223.29 485.435 1224.75 484.761 1226.17 484.106 1227.67 483.624 1229.2 483.324 1230.64 483.032 1232.11 482.881 1233.58 482.874 1236.66 482.837 1239.73 483.401 1242.6 484.536 1245.24 485.586 1247.64 487.158 1249.66 489.159 1251.65 491.166 1253.22 493.549 1254.29 496.169 1256.5 501.828 1256.5 508.115 1254.29 513.775 1252.16 519.094 1247.93 523.303 1242.6 525.414 1239.73 526.548 1236.66 527.113 1233.58 527.076 1232.11 527.068 1230.64 526.918 1229.2 526.626 1227.67 526.323 1226.17 525.841 1224.75 525.189 1223.29 524.515 1221.9 523.676 1220.62 522.69 1219.29 521.659 1218.13 520.416 1217.21 519.01L1217.03 519.01 1217.03 551.891 1211.1 551.891ZM1249.44 504.959C1249.45 502.726 1249.08 500.507 1248.32 498.406 1247.61 496.445 1246.53 494.643 1245.13 493.102 1243.72 491.589 1242.02 490.382 1240.13 489.553 1238.04 488.658 1235.79 488.215 1233.53 488.253 1231.22 488.224 1228.92 488.666 1226.79 489.553 1224.81 490.385 1223.01 491.59 1221.49 493.102 1219.98 494.62 1218.79 496.423 1217.98 498.406 1216.31 502.618 1216.31 507.313 1217.98 511.526 1218.78 513.508 1219.98 515.309 1221.49 516.823 1223.01 518.339 1224.81 519.545 1226.79 520.372 1228.92 521.261 1231.21 521.706 1233.53 521.678 1235.79 521.714 1238.04 521.269 1240.13 520.372 1242.02 519.548 1243.72 518.339 1245.13 516.823 1246.53 515.285 1247.62 513.485 1248.32 511.526 1249.08 509.42 1249.45 507.197 1249.44 504.959ZM1308.46 504.959C1308.49 507.974 1307.93 510.965 1306.8 513.762 1304.68 519.089 1300.45 523.305 1295.12 525.42 1292.25 526.555 1289.18 527.119 1286.09 527.082 1283.03 527.114 1280 526.55 1277.15 525.42 1271.83 523.306 1267.61 519.098 1265.48 513.781 1263.26 508.121 1263.26 501.835 1265.48 496.175 1267.6 490.858 1271.83 486.651 1277.15 484.542 1280 483.413 1283.03 482.848 1286.09 482.88 1289.18 482.843 1292.25 483.408 1295.12 484.542 1297.76 485.592 1300.16 487.165 1302.17 489.166 1304.17 491.173 1305.74 493.555 1306.8 496.175 1307.93 498.966 1308.49 501.951 1308.46 504.959ZM1301.99 504.959C1302.01 502.726 1301.63 500.507 1300.87 498.406 1300.17 496.445 1299.08 494.643 1297.68 493.102 1296.28 491.589 1294.57 490.382 1292.68 489.553 1288.45 487.82 1283.71 487.82 1279.48 489.553 1277.6 490.376 1275.91 491.585 1274.53 493.102 1273.17 494.655 1272.11 496.455 1271.41 498.406 1269.91 502.65 1269.91 507.281 1271.41 511.526 1272.1 513.475 1273.16 515.273 1274.53 516.823 1275.91 518.344 1277.6 519.553 1279.48 520.372 1283.71 522.113 1288.45 522.113 1292.68 520.372 1294.58 519.548 1296.28 518.339 1297.68 516.823 1299.08 515.285 1300.17 513.485 1300.87 511.526 1301.63 509.42 1302.01 507.197 1301.99 504.959ZM1319.87 497.056C1319.87 495.199 1319.83 493.312 1319.74 491.396 1319.64 489.48 1319.56 486.993 1319.49 483.936L1325.33 483.936 1325.33 491.752 1325.51 491.752C1325.95 490.581 1326.55 489.478 1327.3 488.478 1328.11 487.405 1329.06 486.452 1330.13 485.648 1331.3 484.772 1332.61 484.088 1334 483.624 1335.61 483.092 1337.3 482.835 1339 482.862 1340.47 482.841 1341.94 483.022 1343.37 483.399L1342.2 489.241C1341.1 488.894 1339.95 488.741 1338.79 488.791 1336.77 488.735 1334.76 489.181 1332.95 490.09 1331.39 490.913 1330.02 492.044 1328.91 493.414 1327.86 494.716 1327.05 496.198 1326.53 497.787 1326.04 499.234 1325.78 500.751 1325.76 502.279L1325.76 526.02 1319.84 526.02ZM1370.81 489.328 1358.68 489.328 1358.68 514.125C1358.65 515.412 1358.8 516.697 1359.13 517.942 1359.35 518.797 1359.78 519.585 1360.38 520.235 1360.91 520.77 1361.58 521.158 1362.31 521.359 1363.12 521.576 1363.96 521.681 1364.81 521.672 1365.86 521.663 1366.91 521.511 1367.93 521.222 1368.96 520.942 1369.95 520.55 1370.89 520.053L1371.16 525.533C1368.64 526.613 1365.91 527.136 1363.17 527.063 1361.97 527.056 1360.78 526.905 1359.62 526.613 1358.38 526.309 1357.23 525.726 1356.25 524.908 1355.16 523.973 1354.31 522.804 1353.75 521.49 1353.02 519.696 1352.68 517.766 1352.75 515.83L1352.75 489.328 1343.85 489.328 1343.85 483.936 1352.74 483.936 1352.74 472.066 1358.68 472.066 1358.68 483.936 1370.8 483.936ZM1403.87 483.936 1409.79 483.936 1409.79 490.946 1409.98 490.946C1410.91 489.54 1412.06 488.295 1413.39 487.26 1414.67 486.272 1416.05 485.434 1417.52 484.761 1418.94 484.106 1420.44 483.624 1421.97 483.324 1423.41 483.032 1424.88 482.882 1426.34 482.874 1429.43 482.838 1432.5 483.402 1435.38 484.536 1438.02 485.586 1440.41 487.158 1442.43 489.159 1444.42 491.164 1445.99 493.548 1447.05 496.169 1449.27 501.828 1449.27 508.115 1447.05 513.775 1444.92 519.098 1440.69 523.309 1435.36 525.42 1432.48 526.554 1429.42 527.119 1426.33 527.082 1424.86 527.074 1423.39 526.924 1421.95 526.632 1420.42 526.33 1418.92 525.847 1417.5 525.195 1416.04 524.522 1414.65 523.684 1413.37 522.696 1412.04 521.665 1410.89 520.422 1409.96 519.016L1409.78 519.016 1409.78 551.897 1403.85 551.897ZM1442.23 504.959C1442.25 502.725 1441.87 500.506 1441.11 498.406 1440.4 496.444 1439.32 494.641 1437.91 493.102 1436.51 491.587 1434.81 490.379 1432.92 489.553 1430.83 488.657 1428.58 488.214 1426.31 488.253 1424 488.224 1421.71 488.666 1419.58 489.553 1417.6 490.385 1415.8 491.59 1414.27 493.102 1412.77 494.62 1411.58 496.423 1410.77 498.406 1409.09 502.617 1409.09 507.314 1410.77 511.526 1411.58 513.507 1412.77 515.309 1414.27 516.823 1415.79 518.339 1417.6 519.545 1419.58 520.372 1421.71 521.259 1424.01 521.702 1426.32 521.672 1428.59 521.708 1430.84 521.263 1432.92 520.366 1434.82 519.545 1436.52 518.336 1437.92 516.817 1439.33 515.281 1440.41 513.48 1441.11 511.519 1441.87 509.416 1442.25 507.195 1442.23 504.959ZM1485.71 500.199 1485.71 499.124C1485.71 491.877 1482.12 488.253 1474.93 488.253 1470.17 488.192 1465.57 489.958 1462.08 493.189L1458.49 488.972C1462.44 484.898 1468.37 482.862 1476.27 482.862 1478.27 482.856 1480.26 483.159 1482.16 483.761 1483.97 484.317 1485.64 485.25 1487.06 486.498 1488.48 487.79 1489.61 489.368 1490.38 491.127 1491.26 493.229 1491.69 495.495 1491.63 497.775L1491.63 516.517C1491.63 518.133 1491.71 519.826 1491.86 521.597L1492.35 525.97 1486.6 525.97C1486.42 524.952 1486.29 523.846 1486.2 522.646L1486.06 519.141 1485.88 519.141C1484.43 521.689 1482.3 523.787 1479.73 525.208 1477.03 526.519 1474.06 527.162 1471.06 527.082 1469.23 527.087 1467.42 526.828 1465.67 526.314 1464 525.837 1462.42 525.047 1461.04 523.983 1459.7 522.941 1458.6 521.622 1457.81 520.116 1456.97 518.463 1456.55 516.628 1456.59 514.774 1456.59 511.359 1457.48 508.679 1459.24 506.734 1461.06 504.747 1463.35 503.245 1465.89 502.36 1468.65 501.385 1471.52 500.782 1474.43 500.567 1477.46 500.322 1480.22 500.201 1482.74 500.205ZM1482.65 505.053 1477.03 505.278C1474.84 505.417 1472.67 505.777 1470.56 506.353 1468.63 506.856 1466.82 507.758 1465.26 509.002 1463.79 510.21 1462.97 512.041 1463.06 513.943 1463.02 515.181 1463.32 516.405 1463.91 517.492 1464.47 518.473 1465.26 519.306 1466.2 519.922 1467.18 520.556 1468.26 521.01 1469.39 521.266 1470.55 521.535 1471.74 521.671 1472.94 521.672 1474.87 521.717 1476.79 521.348 1478.56 520.591 1481.65 519.242 1483.99 516.596 1484.94 513.362 1485.45 511.659 1485.71 509.888 1485.7 508.108L1485.7 505.053ZM1536.02 493.82C1534.92 492.19 1533.46 490.837 1531.75 489.865 1529.85 488.772 1527.7 488.215 1525.51 488.253 1523.24 488.155 1520.99 488.554 1518.9 489.422 1517.01 490.221 1515.3 491.414 1513.9 492.92 1512.51 494.469 1511.44 496.29 1510.78 498.268 1509.35 502.616 1509.35 507.309 1510.78 511.657 1511.44 513.633 1512.51 515.452 1513.9 516.998 1515.3 518.509 1517.01 519.704 1518.9 520.503 1520.99 521.368 1523.25 521.767 1525.51 521.672 1527.7 521.71 1529.86 521.151 1531.75 520.053 1533.46 519.085 1534.92 517.731 1536.02 516.099L1540.87 519.785C1538.94 522.11 1536.52 523.969 1533.77 525.22 1531.17 526.392 1528.36 527.029 1525.51 527.094 1522.35 527.195 1519.2 526.659 1516.25 525.52 1513.6 524.484 1511.2 522.908 1509.2 520.891 1507.23 518.883 1505.72 516.481 1504.76 513.843 1502.72 508.12 1502.72 501.867 1504.76 496.144 1505.72 493.505 1507.23 491.1 1509.2 489.091 1511.2 487.077 1513.61 485.503 1516.25 484.467 1519.2 483.322 1522.35 482.787 1525.51 482.893 1528.36 482.958 1531.17 483.596 1533.77 484.767 1536.52 486.018 1538.94 487.877 1540.87 490.203ZM1554.61 502.929 1574.47 483.968 1583.36 483.968 1562.43 503.198 1585.63 525.982 1576.45 525.982 1554.58 503.885 1554.58 525.982 1548.65 525.982 1548.65 458.065 1554.58 458.065ZM1618.94 500.199 1618.94 499.124C1618.94 491.877 1615.35 488.253 1608.16 488.253 1603.4 488.192 1598.8 489.958 1595.31 493.189L1591.72 488.972C1595.67 484.898 1601.6 482.862 1609.5 482.862 1611.5 482.856 1613.49 483.159 1615.39 483.761 1617.2 484.317 1618.87 485.25 1620.29 486.498 1621.71 487.79 1622.84 489.368 1623.61 491.127 1624.49 493.229 1624.92 495.495 1624.86 497.775L1624.86 516.517C1624.86 518.133 1624.94 519.826 1625.09 521.597 1625.23 523.367 1625.4 524.825 1625.58 525.97L1619.83 525.97C1619.65 524.952 1619.52 523.846 1619.42 522.646L1619.29 519.141 1619.11 519.141C1617.65 521.688 1615.53 523.786 1612.96 525.208 1610.26 526.519 1607.29 527.162 1604.29 527.082 1602.46 527.087 1600.65 526.828 1598.9 526.314 1597.22 525.836 1595.65 525.045 1594.27 523.983 1592.93 522.941 1591.83 521.622 1591.04 520.116 1590.2 518.463 1589.78 516.628 1589.82 514.774 1589.82 511.359 1590.71 508.679 1592.47 506.734 1594.29 504.747 1596.58 503.245 1599.12 502.36 1601.87 501.385 1604.74 500.782 1607.65 500.567 1610.68 500.322 1613.45 500.201 1615.97 500.205ZM1615.88 505.053 1610.26 505.278C1608.07 505.417 1605.91 505.777 1603.79 506.353 1601.86 506.856 1600.06 507.758 1598.5 509.002 1597.02 510.209 1596.2 512.041 1596.29 513.943 1596.26 515.181 1596.55 516.406 1597.15 517.492 1597.71 518.473 1598.49 519.306 1599.44 519.922 1600.41 520.556 1601.49 521.01 1602.63 521.266 1603.79 521.535 1604.98 521.671 1606.17 521.672 1608.1 521.717 1610.02 521.348 1611.8 520.591 1613.32 519.917 1614.69 518.922 1615.79 517.673 1616.88 516.421 1617.7 514.952 1618.18 513.362 1618.69 511.659 1618.95 509.888 1618.94 508.108L1618.94 505.053ZM1641.86 534.429C1643.65 536.81 1645.97 538.736 1648.64 540.052 1651.53 541.481 1654.72 542.202 1657.94 542.157 1660.55 542.227 1663.14 541.786 1665.58 540.858 1667.52 540.091 1669.26 538.875 1670.65 537.309 1671.96 535.783 1672.9 533.989 1673.43 532.055 1674.02 529.964 1674.3 527.803 1674.29 525.633L1674.29 518.079 1674.11 518.079C1672.42 520.756 1669.99 522.88 1667.11 524.189 1664.36 525.383 1661.39 525.993 1658.39 525.982 1655.45 526.006 1652.54 525.456 1649.81 524.364 1647.23 523.341 1644.86 521.833 1642.85 519.922 1640.85 517.999 1639.26 515.691 1638.17 513.137 1637.02 510.44 1636.44 507.535 1636.47 504.603 1636.44 501.68 1636.99 498.78 1638.09 496.069 1639.12 493.503 1640.63 491.155 1642.53 489.147 1644.44 487.159 1646.73 485.586 1649.27 484.524 1651.99 483.394 1654.91 482.829 1657.85 482.862 1659.19 482.869 1660.53 482.988 1661.85 483.218 1663.3 483.469 1664.71 483.888 1666.07 484.467 1669.29 485.856 1672.06 488.091 1674.11 490.934L1674.29 490.934 1674.29 483.936 1680.22 483.936 1680.22 525.626C1680.2 528.081 1679.9 530.526 1679.35 532.917 1678.77 535.499 1677.64 537.923 1676.02 540.014 1674.18 542.325 1671.83 544.171 1669.15 545.406 1666.23 546.843 1662.4 547.562 1657.65 547.562 1653.81 547.629 1649.98 546.928 1646.41 545.5 1643 544.034 1639.93 541.86 1637.42 539.121ZM1642.94 504.441C1642.92 506.583 1643.33 508.708 1644.15 510.688 1644.93 512.59 1646.06 514.329 1647.48 515.811 1648.89 517.282 1650.56 518.471 1652.42 519.316 1654.35 520.193 1656.45 520.637 1658.57 520.616 1662.77 520.631 1666.82 519.042 1669.89 516.174 1671.39 514.751 1672.58 513.018 1673.35 511.094 1674.18 508.981 1674.56 506.717 1674.47 504.447 1674.49 502.317 1674.12 500.201 1673.39 498.199 1672.71 496.299 1671.64 494.556 1670.27 493.076 1668.85 491.579 1667.14 490.387 1665.24 489.572 1663.14 488.68 1660.87 488.237 1658.59 488.272 1656.47 488.251 1654.37 488.694 1652.44 489.572 1650.58 490.416 1648.91 491.606 1647.5 493.076 1646.07 494.559 1644.95 496.297 1644.17 498.199 1643.35 500.17 1642.92 502.286 1642.93 504.422ZM1697.64 506.577C1697.8 508.627 1698.32 510.632 1699.16 512.506 1700.74 516.102 1703.63 518.961 1707.25 520.503 1709.09 521.292 1711.08 521.69 1713.08 521.672 1715.98 521.748 1718.83 520.984 1721.3 519.472 1723.41 518.194 1725.21 516.458 1726.56 514.393L1731.14 518.142C1728.95 521.05 1726.1 523.391 1722.83 524.97 1719.77 526.355 1716.44 527.06 1713.08 527.038 1710.11 527.065 1707.16 526.5 1704.41 525.376 1701.83 524.318 1699.49 522.743 1697.54 520.747 1695.59 518.724 1694.05 516.344 1693 513.737 1691.88 510.941 1691.31 507.949 1691.34 504.934 1691.31 501.923 1691.86 498.935 1692.96 496.132 1693.98 493.522 1695.51 491.14 1697.45 489.122 1699.37 487.148 1701.66 485.576 1704.19 484.499 1706.83 483.378 1709.67 482.812 1712.54 482.837 1715.48 482.788 1718.39 483.37 1721.08 484.542 1723.48 485.601 1725.64 487.145 1727.41 489.078 1729.15 491.012 1730.47 493.272 1731.32 495.725 1732.23 498.336 1732.68 501.083 1732.67 503.847L1732.67 506.54ZM1726.2 501.729C1726.2 497.71 1725 494.459 1722.61 491.977 1720.21 489.495 1716.86 488.245 1712.55 488.228 1710.64 488.229 1708.74 488.609 1706.98 489.347 1705.24 490.062 1703.64 491.082 1702.26 492.358 1700.93 493.589 1699.84 495.049 1699.03 496.669 1698.22 498.225 1697.79 499.951 1697.78 501.704Z" fill="#5E5E5E" fill-rule="nonzero" fill-opacity="1" transform="matrix(1 0 0 1.00045 797 917.015)"/><path d="M1810.92 504.959C1810.95 507.975 1810.39 510.966 1809.26 513.762 1807.14 519.09 1802.91 523.307 1797.58 525.42 1794.71 526.555 1791.64 527.119 1788.55 527.082 1785.49 527.114 1782.46 526.55 1779.61 525.42 1774.29 523.311 1770.06 519.102 1767.94 513.781 1765.72 508.121 1765.72 501.835 1767.94 496.175 1770.06 490.855 1774.28 486.646 1779.61 484.542 1782.46 483.413 1785.49 482.848 1788.55 482.88 1791.64 482.843 1794.71 483.408 1797.58 484.542 1802.91 486.646 1807.13 490.855 1809.26 496.175 1810.38 498.965 1810.95 501.95 1810.92 504.959ZM1804.45 504.959C1804.47 502.725 1804.09 500.506 1803.33 498.406 1802.62 496.446 1801.54 494.643 1800.14 493.102 1798.74 491.589 1797.03 490.382 1795.14 489.553 1790.91 487.82 1786.17 487.82 1781.94 489.553 1780.06 490.374 1778.37 491.584 1776.99 493.102 1775.62 494.653 1774.56 496.454 1773.87 498.406 1772.37 502.65 1772.37 507.281 1773.87 511.526 1774.56 513.476 1775.62 515.275 1776.99 516.823 1778.37 518.346 1780.05 519.555 1781.94 520.372 1786.17 522.113 1790.91 522.113 1795.14 520.372 1797.04 519.548 1798.74 518.339 1800.14 516.823 1801.54 515.285 1802.63 513.484 1803.33 511.526 1804.09 509.421 1804.47 507.198 1804.45 504.959Z" fill="#5E5E5E" fill-rule="nonzero" fill-opacity="1" transform="matrix(1 0 0 1.00045 797 917.015)"/><path d="M1841.29 489.328 1831.29 489.328 1831.29 525.982 1825.36 525.982 1825.36 489.328 1816.47 489.328 1816.47 483.936 1825.36 483.936 1825.36 472.441C1825.36 466.868 1826.65 462.899 1829.22 460.533 1831.8 458.167 1835.21 456.984 1839.46 456.984 1840.32 456.987 1841.18 457.047 1842.03 457.165L1844.59 457.615 1843.51 463.007 1841.26 462.557C1840.49 462.438 1839.71 462.378 1838.93 462.376 1837.56 462.32 1836.2 462.599 1834.97 463.188 1833.98 463.7 1833.17 464.496 1832.64 465.475 1832.07 466.554 1831.71 467.727 1831.56 468.936 1831.38 470.336 1831.29 471.747 1831.29 473.159L1831.29 483.936 1841.29 483.936ZM1895.01 489.328 1882.88 489.328 1882.88 514.125C1882.84 515.412 1883 516.698 1883.33 517.942 1883.55 518.797 1883.98 519.585 1884.58 520.235 1885.11 520.77 1885.78 521.158 1886.51 521.359 1887.31 521.574 1888.14 521.679 1888.98 521.672 1890.03 521.664 1891.08 521.512 1892.1 521.222 1893.13 520.943 1894.12 520.551 1895.07 520.053L1895.34 525.533C1892.81 526.613 1890.08 527.135 1887.34 527.063 1886.14 527.055 1884.95 526.904 1883.79 526.613 1882.55 526.308 1881.4 525.724 1880.42 524.908 1879.34 523.973 1878.49 522.804 1877.92 521.49 1877.19 519.696 1876.86 517.766 1876.93 515.83L1876.93 489.328 1868.04 489.328 1868.04 483.936 1876.93 483.936 1876.93 472.066 1882.86 472.066 1882.86 483.936 1894.99 483.936ZM1903.1 458.065 1909.02 458.065 1909.02 490.677 1909.2 490.677C1909.88 489.521 1910.72 488.469 1911.7 487.554 1912.72 486.577 1913.87 485.737 1915.11 485.055 1916.38 484.366 1917.72 483.823 1919.11 483.436 1920.47 483.055 1921.87 482.86 1923.29 482.855 1928.68 482.855 1932.67 484.278 1935.24 487.123 1937.81 489.967 1939.1 494.024 1939.1 499.293L1939.1 525.982 1933.17 525.982 1933.17 502.716C1933.17 498.043 1932.36 494.463 1930.75 491.977 1929.13 489.49 1926.14 488.241 1921.76 488.228 1920.92 488.3 1920.09 488.419 1919.26 488.584 1917.68 488.913 1916.19 489.587 1914.89 490.559 1913.18 491.85 1911.78 493.509 1910.8 495.413 1909.6 497.571 1909 500.565 1909.01 504.397L1909.01 525.982 1903.08 525.982ZM1957.17 506.577C1957.34 508.627 1957.86 510.633 1958.7 512.506 1960.29 516.102 1963.18 518.961 1966.79 520.503 1968.63 521.293 1970.62 521.691 1972.63 521.672 1975.52 521.747 1978.38 520.983 1980.85 519.472 1982.96 518.194 1984.76 516.458 1986.11 514.393L1990.69 518.142C1988.5 521.048 1985.65 523.39 1982.38 524.97 1979.32 526.354 1975.99 527.06 1972.63 527.038 1969.66 527.065 1966.71 526.501 1963.96 525.376 1961.38 524.32 1959.04 522.744 1957.09 520.747 1955.14 518.724 1953.6 516.344 1952.55 513.737 1951.42 510.941 1950.86 507.95 1950.89 504.934 1950.86 501.924 1951.41 498.936 1952.5 496.132 1953.53 493.523 1955.06 491.142 1957 489.122 1958.91 487.147 1961.2 485.575 1963.73 484.499 1966.38 483.378 1969.22 482.813 1972.09 482.837 1975.02 482.787 1977.93 483.369 1980.62 484.542 1983.03 485.597 1985.18 487.142 1986.96 489.078 1988.69 491.011 1990.02 493.271 1990.87 495.725 1991.77 498.337 1992.23 501.084 1992.21 503.847L1992.21 506.54ZM1985.74 501.729C1985.74 497.71 1984.55 494.459 1982.15 491.977 1979.76 489.495 1976.4 488.245 1972.09 488.228 1970.18 488.228 1968.28 488.608 1966.52 489.347 1964.78 490.059 1963.18 491.079 1961.8 492.358 1960.48 493.589 1959.38 495.049 1958.57 496.669 1957.77 498.229 1957.36 499.954 1957.36 501.704ZM2077.11 474.059C2074.92 471.76 2072.3 469.926 2069.39 468.667 2062.5 465.936 2054.82 466.033 2048 468.936 2044.88 470.355 2042.08 472.404 2039.78 474.952 2037.51 477.507 2035.76 480.478 2034.62 483.699 2032.22 490.471 2032.22 497.862 2034.62 504.634 2035.76 507.856 2037.51 510.826 2039.78 513.381 2042.07 515.934 2044.87 517.983 2048 519.397 2051.45 520.942 2055.19 521.709 2058.97 521.647 2062.16 521.657 2065.35 521.25 2068.44 520.435 2071.28 519.697 2074.01 518.595 2076.57 517.155L2076.57 495.888 2061.38 495.888 2061.38 489.959 2083.03 489.959 2083.03 521.134C2079.33 523.273 2075.36 524.89 2071.22 525.939 2067.22 527.008 2063.1 527.566 2058.96 527.601 2054.45 527.651 2049.97 526.801 2045.8 525.102 2037.82 521.898 2031.51 515.579 2028.3 507.608 2024.95 499 2024.95 489.446 2028.3 480.838 2031.51 472.867 2037.82 466.548 2045.8 463.344 2049.98 461.648 2054.45 460.798 2058.96 460.845 2064.05 460.845 2068.43 461.549 2072.12 462.957 2075.82 464.375 2079.17 466.564 2081.96 469.38Z" fill="#5E5E5E" fill-rule="nonzero" fill-opacity="1" transform="matrix(1 0 0 1.00045 797 917.015)"/><path d="M1810.92 504.959C1810.95 507.975 1810.39 510.966 1809.26 513.762 1807.14 519.09 1802.91 523.307 1797.58 525.42 1794.71 526.555 1791.64 527.119 1788.55 527.082 1785.49 527.114 1782.46 526.55 1779.61 525.42 1774.29 523.311 1770.06 519.102 1767.94 513.781 1765.72 508.121 1765.72 501.835 1767.94 496.175 1770.06 490.855 1774.28 486.646 1779.61 484.542 1782.46 483.413 1785.49 482.848 1788.55 482.88 1791.64 482.843 1794.71 483.408 1797.58 484.542 1802.91 486.646 1807.13 490.855 1809.26 496.175 1810.38 498.965 1810.95 501.95 1810.92 504.959ZM1804.45 504.959C1804.47 502.725 1804.09 500.506 1803.33 498.406 1802.62 496.446 1801.54 494.643 1800.14 493.102 1798.74 491.589 1797.03 490.382 1795.14 489.553 1790.91 487.82 1786.17 487.82 1781.94 489.553 1780.06 490.374 1778.37 491.584 1776.99 493.102 1775.62 494.653 1774.56 496.454 1773.87 498.406 1772.37 502.65 1772.37 507.281 1773.87 511.526 1774.56 513.476 1775.62 515.275 1776.99 516.823 1778.37 518.346 1780.05 519.555 1781.94 520.372 1786.17 522.113 1790.91 522.113 1795.14 520.372 1797.04 519.548 1798.74 518.339 1800.14 516.823 1801.54 515.285 1802.63 513.484 1803.33 511.526 1804.09 509.421 1804.47 507.198 1804.45 504.959Z" fill="#5E5E5E" fill-rule="nonzero" fill-opacity="1" transform="matrix(1 0 0 1.00045 1126.43 917.015)"/><path d="M2184.74 520.053 2218.78 520.053 2218.78 525.982 2178.27 525.982 2178.27 462.376 2217.7 462.376 2217.7 468.305 2184.74 468.305 2184.74 489.959 2215.55 489.959 2215.55 495.888 2184.74 495.888ZM2240.25 503.554 2224.98 483.968 2233.07 483.968 2244.75 499.661 2255.89 483.936 2263.26 483.936 2248.61 503.554 2266.22 526.014 2258.13 526.014 2244.03 507.596 2230.46 526.014 2222.91 526.014ZM2303.32 493.82C2302.22 492.19 2300.76 490.837 2299.05 489.865 2297.16 488.772 2295 488.215 2292.81 488.253 2290.55 488.154 2288.29 488.552 2286.2 489.422 2284.31 490.218 2282.6 491.411 2281.2 492.92 2279.8 494.468 2278.74 496.289 2278.08 498.268 2276.65 502.616 2276.65 507.309 2278.08 511.657 2278.74 513.634 2279.8 515.453 2281.2 516.998 2282.6 518.511 2284.3 519.706 2286.2 520.503 2288.29 521.369 2290.55 521.768 2292.81 521.672 2295 521.711 2297.16 521.151 2299.05 520.053 2300.76 519.085 2302.23 517.731 2303.32 516.099L2308.17 519.785C2306.24 522.11 2303.82 523.969 2301.07 525.22 2298.47 526.392 2295.66 527.029 2292.81 527.094 2289.65 527.195 2286.5 526.66 2283.55 525.52 2280.91 524.486 2278.51 522.909 2276.51 520.891 2274.54 518.885 2273.02 516.483 2272.06 513.843 2270.02 508.12 2270.02 501.867 2272.06 496.144 2273.02 493.503 2274.54 491.098 2276.51 489.091 2278.51 487.076 2280.91 485.502 2283.55 484.467 2286.5 483.322 2289.65 482.786 2292.81 482.893 2295.66 482.958 2298.47 483.596 2301.07 484.767 2303.82 486.018 2306.24 487.877 2308.17 490.203ZM2320.12 506.577C2320.29 508.626 2320.8 510.631 2321.64 512.506 2323.23 516.102 2326.12 518.961 2329.73 520.503 2331.57 521.293 2333.56 521.691 2335.57 521.672 2338.47 521.748 2341.32 520.984 2343.79 519.472 2345.9 518.194 2347.7 516.458 2349.05 514.393L2353.63 518.142C2351.44 521.05 2348.59 523.391 2345.32 524.97 2342.26 526.355 2338.93 527.06 2335.57 527.038 2332.6 527.079 2329.66 526.529 2326.91 525.42 2324.32 524.363 2321.98 522.787 2320.03 520.791 2318.09 518.765 2316.55 516.385 2315.5 513.781 2314.37 510.984 2313.81 507.993 2313.84 504.978 2313.8 501.967 2314.35 498.978 2315.45 496.175 2316.48 493.567 2318 491.186 2319.95 489.165 2321.86 487.192 2324.15 485.62 2326.68 484.542 2329.32 483.422 2332.17 482.856 2335.04 482.88 2337.97 482.832 2340.88 483.414 2343.57 484.586 2345.98 485.641 2348.14 487.186 2349.91 489.122 2351.64 491.055 2352.97 493.315 2353.81 495.769 2354.72 498.38 2355.18 501.127 2355.16 503.891L2355.16 506.584ZM2348.69 501.729C2348.69 497.71 2347.49 494.459 2345.09 491.977 2342.69 489.495 2339.34 488.245 2335.03 488.228 2333.12 488.229 2331.23 488.609 2329.46 489.347 2327.72 490.062 2326.12 491.082 2324.74 492.358 2323.42 493.589 2322.32 495.049 2321.51 496.669 2320.72 498.228 2320.3 499.954 2320.3 501.704ZM2373.21 525.982 2367.28 525.982 2367.28 458.065 2373.21 458.065ZM2396.12 467.768C2396.16 468.958 2395.67 470.105 2394.77 470.891 2393.13 472.508 2390.49 472.508 2388.84 470.891 2387.13 469.286 2387.05 466.598 2388.65 464.886 2388.71 464.82 2388.78 464.756 2388.84 464.694 2390.49 463.077 2393.13 463.077 2394.77 464.694 2395.65 465.469 2396.15 466.594 2396.12 467.768ZM2394.77 525.982 2388.84 525.982 2388.84 483.936 2394.77 483.936ZM2437.89 488.253 2413.28 520.591 2438.79 520.591 2438.79 525.982 2404.69 525.982 2404.69 521.672 2429.3 489.328 2405.94 489.328 2405.94 483.936 2437.92 483.936ZM2451.46 506.577C2451.63 508.627 2452.14 510.632 2452.99 512.506 2454.57 516.102 2457.46 518.961 2461.07 520.503 2462.92 521.293 2464.91 521.691 2466.91 521.672 2469.81 521.748 2472.66 520.984 2475.14 519.472 2477.24 518.194 2479.04 516.458 2480.39 514.393L2484.97 518.142C2482.78 521.05 2479.94 523.391 2476.66 524.97 2473.6 526.355 2470.27 527.06 2466.91 527.038 2463.94 527.065 2460.99 526.5 2458.24 525.376 2455.66 524.318 2453.32 522.743 2451.37 520.747 2449.42 518.724 2447.88 516.344 2446.83 513.737 2445.71 510.941 2445.14 507.949 2445.17 504.934 2445.14 501.923 2445.69 498.935 2446.79 496.132 2447.81 493.522 2449.34 491.14 2451.28 489.122 2453.2 487.148 2455.49 485.576 2458.02 484.499 2460.66 483.378 2463.51 482.812 2466.38 482.837 2469.31 482.788 2472.22 483.37 2474.91 484.542 2477.31 485.601 2479.47 487.145 2481.24 489.078 2482.98 491.012 2484.3 493.272 2485.15 495.725 2486.06 498.336 2486.52 501.083 2486.5 503.847L2486.5 506.54ZM2480.03 501.729C2480.03 497.71 2478.83 494.459 2476.43 491.977 2474.04 489.495 2470.69 488.245 2466.38 488.228 2464.46 488.229 2462.57 488.609 2460.8 489.347 2459.06 490.062 2457.47 491.082 2456.09 492.358 2454.76 493.589 2453.67 495.049 2452.86 496.669 2452.06 498.228 2451.64 499.953 2451.64 501.704ZM2529.53 525.982 2523.6 525.982 2523.6 458.065 2529.53 458.065ZM2552.44 467.768C2552.48 468.957 2551.99 470.104 2551.09 470.891 2549.38 472.529 2546.67 472.468 2545.03 470.757 2543.39 469.046 2543.45 466.331 2545.16 464.694 2546.81 463.077 2549.45 463.077 2551.09 464.694 2551.97 465.47 2552.46 466.595 2552.44 467.768ZM2551.09 525.982 2545.16 525.982 2545.16 483.936 2551.09 483.936ZM2565.37 458.065 2571.3 458.065 2571.3 490.946 2571.48 490.946C2572.41 489.54 2573.57 488.295 2574.9 487.26 2576.18 486.273 2577.56 485.435 2579.03 484.761 2580.45 484.107 2581.94 483.624 2583.47 483.324 2584.91 483.033 2586.38 482.882 2587.85 482.874 2590.94 482.837 2594 483.401 2596.88 484.536 2602.2 486.64 2606.43 490.848 2608.55 496.169 2610.77 501.828 2610.77 508.115 2608.55 513.775 2606.42 519.1 2602.2 523.313 2596.86 525.42 2593.99 526.555 2590.92 527.119 2587.83 527.082 2586.37 527.074 2584.9 526.923 2583.46 526.632 2581.93 526.329 2580.44 525.846 2579.02 525.195 2577.55 524.521 2576.16 523.682 2574.88 522.696 2573.55 521.665 2572.4 520.422 2571.47 519.016L2571.29 519.016 2571.29 525.982 2565.36 525.982ZM2603.73 504.959C2603.75 502.725 2603.37 500.506 2602.61 498.406 2601.91 496.446 2600.82 494.643 2599.42 493.102 2598.02 491.589 2596.32 490.382 2594.43 489.553 2592.34 488.658 2590.09 488.215 2587.82 488.253 2585.51 488.224 2583.22 488.666 2581.08 489.553 2579.1 490.383 2577.3 491.588 2575.78 493.102 2574.27 494.618 2573.08 496.421 2572.28 498.406 2570.6 502.618 2570.6 507.313 2572.28 511.526 2573.08 513.509 2574.27 515.31 2575.78 516.823 2577.3 518.341 2579.1 519.546 2581.08 520.372 2583.22 521.261 2585.51 521.705 2587.82 521.678 2590.09 521.714 2592.34 521.269 2594.43 520.372 2596.32 519.548 2598.02 518.339 2599.42 516.823 2600.83 515.285 2601.91 513.484 2602.61 511.526 2603.37 509.421 2603.75 507.198 2603.73 504.959ZM2620.9 497.056 2620.76 491.396C2620.65 488.91 2620.58 486.424 2620.53 483.936L2626.38 483.936 2626.38 491.752 2626.55 491.752C2626.99 490.579 2627.59 489.476 2628.35 488.478 2629.15 487.405 2630.11 486.452 2631.18 485.648 2632.35 484.773 2633.66 484.09 2635.04 483.624 2636.65 483.094 2638.34 482.836 2640.04 482.862 2641.53 482.839 2643.01 483.019 2644.44 483.399L2643.28 489.241C2642.17 488.895 2641.02 488.742 2639.86 488.791 2637.84 488.735 2635.83 489.181 2634.02 490.09 2632.46 490.911 2631.09 492.042 2629.98 493.414 2628.93 494.715 2628.12 496.197 2627.6 497.787 2627.11 499.234 2626.85 500.751 2626.84 502.279L2626.84 526.02 2620.91 526.02ZM2677.04 500.199 2677.04 499.124C2677.04 491.877 2673.45 488.253 2666.26 488.253 2661.5 488.192 2656.91 489.959 2653.42 493.189L2649.82 488.972C2653.77 484.898 2659.7 482.862 2667.61 482.862 2669.61 482.857 2671.59 483.16 2673.49 483.761 2675.3 484.316 2676.97 485.249 2678.39 486.498 2679.81 487.788 2680.94 489.366 2681.71 491.127 2682.6 493.228 2683.02 495.495 2682.96 497.775L2682.96 516.517C2682.96 518.133 2683.03 519.826 2683.19 521.597L2683.68 525.97 2677.92 525.97C2677.75 524.952 2677.61 523.846 2677.52 522.646L2677.39 519.141 2677.21 519.141C2675.75 521.689 2673.62 523.787 2671.05 525.208 2668.36 526.52 2665.38 527.162 2662.39 527.082 2660.56 527.087 2658.75 526.828 2657 526.314 2655.32 525.836 2653.75 525.045 2652.37 523.983 2651.02 522.94 2649.92 521.621 2649.14 520.116 2648.3 518.463 2647.88 516.628 2647.92 514.774 2647.92 511.359 2648.81 508.679 2650.57 506.734 2652.39 504.745 2654.67 503.242 2657.22 502.36 2659.97 501.385 2662.84 500.782 2665.75 500.567 2668.78 500.322 2671.55 500.201 2674.06 500.205ZM2673.99 505.053C2672.49 505.053 2670.61 505.128 2668.37 505.278 2666.18 505.417 2664.01 505.777 2661.9 506.353 2659.97 506.856 2658.16 507.758 2656.59 509.002 2655.12 510.21 2654.31 512.041 2654.4 513.943 2654.36 515.181 2654.65 516.407 2655.25 517.492 2655.81 518.471 2656.6 519.304 2657.54 519.922 2658.51 520.556 2659.6 521.011 2660.73 521.266 2661.89 521.535 2663.09 521.671 2664.28 521.672 2666.21 521.718 2668.13 521.349 2669.9 520.591 2672.99 519.242 2675.33 516.596 2676.28 513.362 2676.8 511.66 2677.06 509.888 2677.05 508.108L2677.05 505.053ZM2697.34 497.056C2697.34 495.199 2697.3 493.312 2697.21 491.396 2697.12 489.478 2697.04 487.023 2696.99 483.936L2702.83 483.936 2702.83 491.752 2703 491.752C2703.44 490.579 2704.05 489.476 2704.8 488.478 2706.49 486.218 2708.82 484.525 2711.49 483.624 2713.1 483.094 2714.79 482.836 2716.49 482.862 2717.97 482.841 2719.44 483.022 2720.86 483.399L2719.7 489.241C2718.59 488.895 2717.44 488.742 2716.28 488.791 2714.26 488.735 2712.25 489.181 2710.44 490.09 2708.88 490.911 2707.51 492.042 2706.4 493.414 2705.35 494.715 2704.54 496.197 2704.02 497.787 2703.53 499.234 2703.27 500.751 2703.26 502.279L2703.26 526.02 2697.32 526.02ZM2742.17 518.704 2755.02 483.936 2762.2 483.936 2741.18 536.941C2740.15 539.828 2738.51 542.462 2736.38 544.669 2734.44 546.589 2731.64 547.547 2727.98 547.543 2727.08 547.543 2726.17 547.543 2725.24 547.455 2724.31 547.392 2723.39 547.211 2722.5 546.918L2723.13 541.164C2724.52 541.855 2726.06 542.194 2727.62 542.151 2729.47 542.25 2731.28 541.528 2732.56 540.177 2733.94 538.533 2735 536.645 2735.68 534.61L2738.74 526.488 2721.49 483.905 2728.95 483.905Z" fill="#5E5E5E" fill-rule="nonzero" fill-opacity="1" transform="matrix(1 0 0 1.00045 797 917.015)"/></g></g></g></g></g></svg>